<?xml version="1.0" encoding="UTF-8" standalone="no"?>
<!DOCTYPE svg PUBLIC "-//W3C//DTD SVG 1.1//EN"
 "http://www.w3.org/Graphics/SVG/1.1/DTD/svg11.dtd">
<!-- Generated by graphviz version 2.50.0 (0)
 -->
<!-- Title: G Pages: 1 -->
<svg width="187pt" height="232pt"
 viewBox="0.00 0.00 187.00 232.00" xmlns="http://www.w3.org/2000/svg" xmlns:xlink="http://www.w3.org/1999/xlink">
<g id="graph0" class="graph" transform="scale(1 1) rotate(0) translate(4 228)">
<title>G</title>
<polygon fill="white" stroke="transparent" points="-4,4 -4,-228 183,-228 183,4 -4,4"/>
<!-- v -->
<g id="node1" class="node">
<title>v</title>
<path fill="none" stroke="#268bd2" stroke-width="1.5" d="M108,-36C108,-36 38,-36 38,-36 32,-36 26,-30 26,-24 26,-24 26,-12 26,-12 26,-6 32,0 38,0 38,0 108,0 108,0 114,0 120,-6 120,-12 120,-12 120,-24 120,-24 120,-30 114,-36 108,-36"/>
<text text-anchor="start" x="69.5" y="-20.4" font-family="Liberation Sans,Helvetica,Arial,sans-serif" font-weight="bold" font-size="12.00" fill="#002b36">v</text>
<text text-anchor="start" x="34" y="-10" font-family="Liberation Sans,Helvetica,Arial,sans-serif" font-size="10.00" fill="#268bd2">2 values (2 sinks)</text>
</g>
<!-- б -->
<g id="node2" class="node">
<title>б</title>
<path fill="none" stroke="#268bd2" stroke-width="1.5" d="M44,-224C44,-224 12,-224 12,-224 6,-224 0,-218 0,-212 0,-212 0,-200 0,-200 0,-194 6,-188 12,-188 12,-188 44,-188 44,-188 50,-188 56,-194 56,-200 56,-200 56,-212 56,-212 56,-218 50,-224 44,-224"/>
<text text-anchor="middle" x="28" y="-203.5" font-family="Liberation Sans,Helvetica,Arial,sans-serif" font-size="10.00" fill="#002b36">ÊäÈëÁбí</text>
</g>
<!--  -->
<g id="node4" class="node">
<title></title>
<path fill="none" stroke="#dc322f" stroke-width="1.5" d="M110,-130C110,-130 36,-130 36,-130 30,-130 24,-124 24,-118 24,-118 24,-106 24,-106 24,-100 30,-94 36,-94 36,-94 110,-94 110,-94 116,-94 122,-100 122,-106 122,-106 122,-118 122,-118 122,-124 116,-130 110,-130"/>
<text text-anchor="middle" x="73" y="-109.5" font-family="Liberation Sans,Helvetica,Arial,sans-serif" font-size="10.00" fill="#002b36">ÅúÆËã</text>
</g>
<!-- б&#45;&gt; -->
<g id="edge1" class="edge">
<title>б&#45;&gt;</title>
<path fill="none" stroke="#002b36" d="M35.43,-187.89C40.47,-176.5 47.4,-161.24 54,-148 55.41,-145.18 56.91,-142.26 58.44,-139.36"/>
<polygon fill="#002b36" stroke="#002b36" points="61.64,-140.79 63.29,-130.32 55.48,-137.48 61.64,-140.79"/>
<text text-anchor="middle" x="75.5" y="-162" font-family="Liberation Sans,Helvetica,Arial,sans-serif" font-size="10.00" fill="#002b36">ÊäÈëÁбí</text>
<text text-anchor="middle" x="75.5" y="-151" font-family="Liberation Sans,Helvetica,Arial,sans-serif" font-size="10.00" fill="#002b36">(1 values)</text>
</g>
<!--  -->
<g id="node3" class="node">
<title></title>
<path fill="none" stroke="#268bd2" stroke-width="1.5" d="M151.5,-224C151.5,-224 86.5,-224 86.5,-224 80.5,-224 74.5,-218 74.5,-212 74.5,-212 74.5,-200 74.5,-200 74.5,-194 80.5,-188 86.5,-188 86.5,-188 151.5,-188 151.5,-188 157.5,-188 163.5,-194 163.5,-200 163.5,-200 163.5,-212 163.5,-212 163.5,-218 157.5,-224 151.5,-224"/>
<text text-anchor="middle" x="119" y="-203.5" font-family="Liberation Sans,Helvetica,Arial,sans-serif" font-size="10.00" fill="#002b36">À²ÎÊý</text>
</g>
<!-- &#45;&gt; -->
<g id="edge3" class="edge">
<title>&#45;&gt;</title>
<path fill="none" stroke="#002b36" d="M113.55,-187.84C109.6,-176.28 103.77,-160.86 97,-148 95.37,-144.91 93.52,-141.76 91.59,-138.68"/>
<polygon fill="#002b36" stroke="#002b36" points="94.48,-136.71 86.04,-130.3 88.65,-140.57 94.48,-136.71"/>
<text text-anchor="middle" x="142.5" y="-162" font-family="Liberation Sans,Helvetica,Arial,sans-serif" font-size="10.00" fill="#002b36">À²ÎÊý</text>
<text text-anchor="middle" x="142.5" y="-151" font-family="Liberation Sans,Helvetica,Arial,sans-serif" font-size="10.00" fill="#002b36">(2 values)</text>
</g>
<!-- &#45;&gt;v -->
<g id="edge2" class="edge">
<title>&#45;&gt;v</title>
<path fill="none" stroke="#002b36" d="M73,-93.7C73,-80.46 73,-61.95 73,-46.66"/>
<polygon fill="#002b36" stroke="#002b36" points="76.5,-46.23 73,-36.23 69.5,-46.23 76.5,-46.23"/>
<text text-anchor="middle" x="94.5" y="-68" font-family="Liberation Sans,Helvetica,Arial,sans-serif" font-size="10.00" fill="#002b36">output_0</text>
<text text-anchor="middle" x="94.5" y="-57" font-family="Liberation Sans,Helvetica,Arial,sans-serif" font-size="10.00" fill="#002b36">(2 values)</text>
</g>
</g>
</svg>
