<?xml version="1.0" encoding="UTF-8" standalone="no"?>
<!DOCTYPE svg PUBLIC "-//W3C//DTD SVG 1.1//EN"
 "http://www.w3.org/Graphics/SVG/1.1/DTD/svg11.dtd">
<!-- Generated by graphviz version 2.50.0 (0)
 -->
<!-- Title: G Pages: 1 -->
<svg width="266pt" height="620pt"
 viewBox="0.00 0.00 265.50 620.00" xmlns="http://www.w3.org/2000/svg" xmlns:xlink="http://www.w3.org/1999/xlink">
<g id="graph0" class="graph" transform="scale(1 1) rotate(0) translate(4 616)">
<title>G</title>
<polygon fill="white" stroke="transparent" points="-4,4 -4,-616 261.5,-616 261.5,4 -4,4"/>
<!-- q -->
<g id="node1" class="node">
<title>q</title>
<path fill="none" stroke="#268bd2" stroke-width="1.5" d="M199.5,-420C199.5,-420 169.5,-420 169.5,-420 163.5,-420 157.5,-414 157.5,-408 157.5,-408 157.5,-396 157.5,-396 157.5,-390 163.5,-384 169.5,-384 169.5,-384 199.5,-384 199.5,-384 205.5,-384 211.5,-390 211.5,-396 211.5,-396 211.5,-408 211.5,-408 211.5,-414 205.5,-420 199.5,-420"/>
<text text-anchor="start" x="180.5" y="-404.4" font-family="Liberation Sans,Helvetica,Arial,sans-serif" font-weight="bold" font-size="12.00" fill="#002b36">q</text>
<text text-anchor="start" x="166" y="-394" font-family="Liberation Sans,Helvetica,Arial,sans-serif" font-size="10.00" fill="#268bd2">2 values</text>
</g>
<!-- subtract -->
<g id="node8" class="node">
<title>subtract</title>
<path fill="none" stroke="#dc322f" stroke-width="1.5" d="M217.5,-134C217.5,-134 165.5,-134 165.5,-134 159.5,-134 153.5,-128 153.5,-122 153.5,-122 153.5,-106 153.5,-106 153.5,-100 159.5,-94 165.5,-94 165.5,-94 217.5,-94 217.5,-94 223.5,-94 229.5,-100 229.5,-106 229.5,-106 229.5,-122 229.5,-122 229.5,-128 223.5,-134 217.5,-134"/>
<text text-anchor="start" x="167.5" y="-121.4" font-family="Liberation Sans,Helvetica,Arial,sans-serif" font-weight="bold" font-size="12.00" fill="#002b36">subtract</text>
<text text-anchor="start" x="161.5" y="-111" font-family="Liberation Sans,Helvetica,Arial,sans-serif" font-size="10.00" fill="#002b36">@op:subtract</text>
<text text-anchor="start" x="177" y="-101" font-family="Liberation Sans,Helvetica,Arial,sans-serif" font-size="10.00" fill="#dc322f">1 calls</text>
</g>
<!-- q&#45;&gt;subtract -->
<g id="edge3" class="edge">
<title>q&#45;&gt;subtract</title>
<path fill="none" stroke="#002b36" d="M197.33,-383.67C200.63,-378.28 203.75,-372.13 205.5,-366 228.92,-283.93 207.83,-259.34 208.5,-174 208.58,-164.22 210.59,-161.55 208.5,-152 207.88,-149.15 207.01,-146.26 206,-143.41"/>
<polygon fill="#002b36" stroke="#002b36" points="209.18,-141.95 202.14,-134.04 202.71,-144.62 209.18,-141.95"/>
<text text-anchor="middle" x="236" y="-260" font-family="Liberation Sans,Helvetica,Arial,sans-serif" font-size="10.00" fill="#002b36">q</text>
<text text-anchor="middle" x="236" y="-249" font-family="Liberation Sans,Helvetica,Arial,sans-serif" font-size="10.00" fill="#002b36">(1 values)</text>
</g>
<!-- multiply -->
<g id="node9" class="node">
<title>multiply</title>
<path fill="none" stroke="#dc322f" stroke-width="1.5" d="M137.5,-326C137.5,-326 87.5,-326 87.5,-326 81.5,-326 75.5,-320 75.5,-314 75.5,-314 75.5,-298 75.5,-298 75.5,-292 81.5,-286 87.5,-286 87.5,-286 137.5,-286 137.5,-286 143.5,-286 149.5,-292 149.5,-298 149.5,-298 149.5,-314 149.5,-314 149.5,-320 143.5,-326 137.5,-326"/>
<text text-anchor="start" x="89.5" y="-313.4" font-family="Liberation Sans,Helvetica,Arial,sans-serif" font-weight="bold" font-size="12.00" fill="#002b36">multiply</text>
<text text-anchor="start" x="83.5" y="-303" font-family="Liberation Sans,Helvetica,Arial,sans-serif" font-size="10.00" fill="#002b36">@op:multiply</text>
<text text-anchor="start" x="98" y="-293" font-family="Liberation Sans,Helvetica,Arial,sans-serif" font-size="10.00" fill="#dc322f">1 calls</text>
</g>
<!-- q&#45;&gt;multiply -->
<g id="edge4" class="edge">
<title>q&#45;&gt;multiply</title>
<path fill="none" stroke="#002b36" d="M172.21,-383.89C163.94,-372.49 152.73,-357.23 142.5,-344 140.01,-340.78 137.37,-337.43 134.73,-334.12"/>
<polygon fill="#002b36" stroke="#002b36" points="137.24,-331.66 128.24,-326.07 131.79,-336.05 137.24,-331.66"/>
<text text-anchor="middle" x="180" y="-358" font-family="Liberation Sans,Helvetica,Arial,sans-serif" font-size="10.00" fill="#002b36">a</text>
<text text-anchor="middle" x="180" y="-347" font-family="Liberation Sans,Helvetica,Arial,sans-serif" font-size="10.00" fill="#002b36">(1 values)</text>
</g>
<!-- y -->
<g id="node2" class="node">
<title>y</title>
<path fill="none" stroke="#268bd2" stroke-width="1.5" d="M93,-612C93,-612 12,-612 12,-612 6,-612 0,-606 0,-600 0,-600 0,-588 0,-588 0,-582 6,-576 12,-576 12,-576 93,-576 93,-576 99,-576 105,-582 105,-588 105,-588 105,-600 105,-600 105,-606 99,-612 93,-612"/>
<text text-anchor="start" x="49" y="-596.4" font-family="Liberation Sans,Helvetica,Arial,sans-serif" font-weight="bold" font-size="12.00" fill="#002b36">y</text>
<text text-anchor="start" x="8" y="-586" font-family="Liberation Sans,Helvetica,Arial,sans-serif" font-size="10.00" fill="#268bd2">2 values (2 sources)</text>
</g>
<!-- add -->
<g id="node7" class="node">
<title>add</title>
<path fill="none" stroke="#dc322f" stroke-width="1.5" d="M162.5,-518C162.5,-518 130.5,-518 130.5,-518 124.5,-518 118.5,-512 118.5,-506 118.5,-506 118.5,-490 118.5,-490 118.5,-484 124.5,-478 130.5,-478 130.5,-478 162.5,-478 162.5,-478 168.5,-478 174.5,-484 174.5,-490 174.5,-490 174.5,-506 174.5,-506 174.5,-512 168.5,-518 162.5,-518"/>
<text text-anchor="start" x="135.5" y="-505.4" font-family="Liberation Sans,Helvetica,Arial,sans-serif" font-weight="bold" font-size="12.00" fill="#002b36">add</text>
<text text-anchor="start" x="126.5" y="-495" font-family="Liberation Sans,Helvetica,Arial,sans-serif" font-size="10.00" fill="#002b36">@op:add</text>
<text text-anchor="start" x="132" y="-485" font-family="Liberation Sans,Helvetica,Arial,sans-serif" font-size="10.00" fill="#dc322f">2 calls</text>
</g>
<!-- y&#45;&gt;add -->
<g id="edge8" class="edge">
<title>y&#45;&gt;add</title>
<path fill="none" stroke="#002b36" d="M69.74,-575.76C83.9,-561.6 104.17,-541.33 120.33,-525.17"/>
<polygon fill="#002b36" stroke="#002b36" points="122.83,-527.62 127.43,-518.07 117.88,-522.67 122.83,-527.62"/>
<text text-anchor="middle" x="129" y="-550" font-family="Liberation Sans,Helvetica,Arial,sans-serif" font-size="10.00" fill="#002b36">y</text>
<text text-anchor="middle" x="129" y="-539" font-family="Liberation Sans,Helvetica,Arial,sans-serif" font-size="10.00" fill="#002b36">(2 values)</text>
</g>
<!-- y&#45;&gt;multiply -->
<g id="edge9" class="edge">
<title>y&#45;&gt;multiply</title>
<path fill="none" stroke="#002b36" d="M52.04,-575.74C51.55,-539.37 52.96,-452.57 74.5,-384 79.81,-367.08 88.39,-349.26 96.06,-335.03"/>
<polygon fill="#002b36" stroke="#002b36" points="99.14,-336.69 100.92,-326.24 93.01,-333.3 99.14,-336.69"/>
<text text-anchor="middle" x="83" y="-452" font-family="Liberation Sans,Helvetica,Arial,sans-serif" font-size="10.00" fill="#002b36">b</text>
<text text-anchor="middle" x="83" y="-441" font-family="Liberation Sans,Helvetica,Arial,sans-serif" font-size="10.00" fill="#002b36">(1 values)</text>
</g>
<!-- a -->
<g id="node3" class="node">
<title>a</title>
<path fill="none" stroke="#268bd2" stroke-width="1.5" d="M125.5,-420C125.5,-420 95.5,-420 95.5,-420 89.5,-420 83.5,-414 83.5,-408 83.5,-408 83.5,-396 83.5,-396 83.5,-390 89.5,-384 95.5,-384 95.5,-384 125.5,-384 125.5,-384 131.5,-384 137.5,-390 137.5,-396 137.5,-396 137.5,-408 137.5,-408 137.5,-414 131.5,-420 125.5,-420"/>
<text text-anchor="start" x="107" y="-404.4" font-family="Liberation Sans,Helvetica,Arial,sans-serif" font-weight="bold" font-size="12.00" fill="#002b36">a</text>
<text text-anchor="start" x="92" y="-394" font-family="Liberation Sans,Helvetica,Arial,sans-serif" font-size="10.00" fill="#268bd2">1 values</text>
</g>
<!-- a&#45;&gt;multiply -->
<g id="edge11" class="edge">
<title>a&#45;&gt;multiply</title>
<path fill="none" stroke="#002b36" d="M103.95,-383.8C102.13,-378.21 100.41,-371.92 99.5,-366 98.02,-356.34 97.86,-353.64 99.5,-344 99.96,-341.32 100.59,-338.58 101.32,-335.86"/>
<polygon fill="#002b36" stroke="#002b36" points="104.68,-336.85 104.35,-326.26 98.01,-334.74 104.68,-336.85"/>
<text text-anchor="middle" x="121" y="-358" font-family="Liberation Sans,Helvetica,Arial,sans-serif" font-size="10.00" fill="#002b36">a</text>
<text text-anchor="middle" x="121" y="-347" font-family="Liberation Sans,Helvetica,Arial,sans-serif" font-size="10.00" fill="#002b36">(1 values)</text>
</g>
<!-- x -->
<g id="node4" class="node">
<title>x</title>
<path fill="none" stroke="#268bd2" stroke-width="1.5" d="M216,-612C216,-612 135,-612 135,-612 129,-612 123,-606 123,-600 123,-600 123,-588 123,-588 123,-582 129,-576 135,-576 135,-576 216,-576 216,-576 222,-576 228,-582 228,-588 228,-588 228,-600 228,-600 228,-606 222,-612 216,-612"/>
<text text-anchor="start" x="172" y="-596.4" font-family="Liberation Sans,Helvetica,Arial,sans-serif" font-weight="bold" font-size="12.00" fill="#002b36">x</text>
<text text-anchor="start" x="131" y="-586" font-family="Liberation Sans,Helvetica,Arial,sans-serif" font-size="10.00" fill="#268bd2">2 values (2 sources)</text>
</g>
<!-- x&#45;&gt;add -->
<g id="edge7" class="edge">
<title>x&#45;&gt;add</title>
<path fill="none" stroke="#002b36" d="M170.18,-575.76C166.05,-562.37 160.23,-543.5 155.39,-527.82"/>
<polygon fill="#002b36" stroke="#002b36" points="158.68,-526.6 152.38,-518.07 151.99,-528.66 158.68,-526.6"/>
<text text-anchor="middle" x="185" y="-550" font-family="Liberation Sans,Helvetica,Arial,sans-serif" font-size="10.00" fill="#002b36">x</text>
<text text-anchor="middle" x="185" y="-539" font-family="Liberation Sans,Helvetica,Arial,sans-serif" font-size="10.00" fill="#002b36">(2 values)</text>
</g>
<!-- p -->
<g id="node5" class="node">
<title>p</title>
<path fill="none" stroke="#268bd2" stroke-width="1.5" d="M173.5,-228C173.5,-228 143.5,-228 143.5,-228 137.5,-228 131.5,-222 131.5,-216 131.5,-216 131.5,-204 131.5,-204 131.5,-198 137.5,-192 143.5,-192 143.5,-192 173.5,-192 173.5,-192 179.5,-192 185.5,-198 185.5,-204 185.5,-204 185.5,-216 185.5,-216 185.5,-222 179.5,-228 173.5,-228"/>
<text text-anchor="start" x="154.5" y="-212.4" font-family="Liberation Sans,Helvetica,Arial,sans-serif" font-weight="bold" font-size="12.00" fill="#002b36">p</text>
<text text-anchor="start" x="140" y="-202" font-family="Liberation Sans,Helvetica,Arial,sans-serif" font-size="10.00" fill="#268bd2">1 values</text>
</g>
<!-- p&#45;&gt;subtract -->
<g id="edge2" class="edge">
<title>p&#45;&gt;subtract</title>
<path fill="none" stroke="#002b36" d="M158.45,-191.76C158.93,-180.18 160.59,-164.75 165.5,-152 166.68,-148.92 168.18,-145.86 169.85,-142.89"/>
<polygon fill="#002b36" stroke="#002b36" points="172.88,-144.65 175.27,-134.33 166.96,-140.91 172.88,-144.65"/>
<text text-anchor="middle" x="187" y="-166" font-family="Liberation Sans,Helvetica,Arial,sans-serif" font-size="10.00" fill="#002b36">p</text>
<text text-anchor="middle" x="187" y="-155" font-family="Liberation Sans,Helvetica,Arial,sans-serif" font-size="10.00" fill="#002b36">(1 values)</text>
</g>
<!-- var_0 -->
<g id="node6" class="node">
<title>var_0</title>
<path fill="none" stroke="#268bd2" stroke-width="1.5" d="M226.5,-36C226.5,-36 156.5,-36 156.5,-36 150.5,-36 144.5,-30 144.5,-24 144.5,-24 144.5,-12 144.5,-12 144.5,-6 150.5,0 156.5,0 156.5,0 226.5,0 226.5,0 232.5,0 238.5,-6 238.5,-12 238.5,-12 238.5,-24 238.5,-24 238.5,-30 232.5,-36 226.5,-36"/>
<text text-anchor="start" x="175.5" y="-20.4" font-family="Liberation Sans,Helvetica,Arial,sans-serif" font-weight="bold" font-size="12.00" fill="#002b36">var_0</text>
<text text-anchor="start" x="152.5" y="-10" font-family="Liberation Sans,Helvetica,Arial,sans-serif" font-size="10.00" fill="#268bd2">1 values (1 sinks)</text>
</g>
<!-- add&#45;&gt;q -->
<g id="edge5" class="edge">
<title>add&#45;&gt;q</title>
<path fill="none" stroke="#002b36" d="M154.95,-477.86C157.43,-472.13 160.12,-465.83 162.5,-460 166.55,-450.09 170.83,-439.13 174.52,-429.5"/>
<polygon fill="#002b36" stroke="#002b36" points="177.84,-430.62 178.13,-420.03 171.3,-428.13 177.84,-430.62"/>
<text text-anchor="middle" x="192" y="-452" font-family="Liberation Sans,Helvetica,Arial,sans-serif" font-size="10.00" fill="#002b36">output_0</text>
<text text-anchor="middle" x="192" y="-441" font-family="Liberation Sans,Helvetica,Arial,sans-serif" font-size="10.00" fill="#002b36">(2 values)</text>
</g>
<!-- add&#45;&gt;a -->
<g id="edge6" class="edge">
<title>add&#45;&gt;a</title>
<path fill="none" stroke="#002b36" d="M129.78,-477.69C125.85,-472.27 122.06,-466.17 119.5,-460 115.61,-450.62 113.39,-439.74 112.12,-430.01"/>
<polygon fill="#002b36" stroke="#002b36" points="115.6,-429.62 111.09,-420.03 108.64,-430.33 115.6,-429.62"/>
<text text-anchor="middle" x="141" y="-452" font-family="Liberation Sans,Helvetica,Arial,sans-serif" font-size="10.00" fill="#002b36">output_0</text>
<text text-anchor="middle" x="141" y="-441" font-family="Liberation Sans,Helvetica,Arial,sans-serif" font-size="10.00" fill="#002b36">(1 values)</text>
</g>
<!-- subtract&#45;&gt;var_0 -->
<g id="edge1" class="edge">
<title>subtract&#45;&gt;var_0</title>
<path fill="none" stroke="#002b36" d="M191.5,-93.98C191.5,-80.34 191.5,-61.75 191.5,-46.5"/>
<polygon fill="#002b36" stroke="#002b36" points="195,-46.1 191.5,-36.1 188,-46.1 195,-46.1"/>
<text text-anchor="middle" x="213" y="-68" font-family="Liberation Sans,Helvetica,Arial,sans-serif" font-size="10.00" fill="#002b36">output_0</text>
<text text-anchor="middle" x="213" y="-57" font-family="Liberation Sans,Helvetica,Arial,sans-serif" font-size="10.00" fill="#002b36">(1 values)</text>
</g>
<!-- multiply&#45;&gt;p -->
<g id="edge10" class="edge">
<title>multiply&#45;&gt;p</title>
<path fill="none" stroke="#002b36" d="M121.81,-285.98C128.68,-271.94 138.11,-252.66 145.69,-237.17"/>
<polygon fill="#002b36" stroke="#002b36" points="148.88,-238.62 150.13,-228.1 142.59,-235.54 148.88,-238.62"/>
<text text-anchor="middle" x="162" y="-260" font-family="Liberation Sans,Helvetica,Arial,sans-serif" font-size="10.00" fill="#002b36">output_0</text>
<text text-anchor="middle" x="162" y="-249" font-family="Liberation Sans,Helvetica,Arial,sans-serif" font-size="10.00" fill="#002b36">(1 values)</text>
</g>
</g>
</svg>
