<?xml version="1.0" encoding="UTF-8" standalone="no"?>
<!DOCTYPE svg PUBLIC "-//W3C//DTD SVG 1.1//EN"
 "http://www.w3.org/Graphics/SVG/1.1/DTD/svg11.dtd">
<!-- Generated by graphviz version 2.50.0 (0)
 -->
<!-- Title: G Pages: 1 -->
<svg width="240pt" height="634pt"
 viewBox="0.00 0.00 239.50 634.00" xmlns="http://www.w3.org/2000/svg" xmlns:xlink="http://www.w3.org/1999/xlink">
<g id="graph0" class="graph" transform="scale(1 1) rotate(0) translate(4 630)">
<title>G</title>
<polygon fill="white" stroke="transparent" points="-4,4 -4,-630 235.5,-630 235.5,4 -4,4"/>
<!-- q -->
<g id="node1" class="node">
<title>q</title>
<path fill="none" stroke="#268bd2" stroke-width="1.5" d="M219.5,-380C219.5,-380 149.5,-380 149.5,-380 143.5,-380 137.5,-374 137.5,-368 137.5,-368 137.5,-356 137.5,-356 137.5,-350 143.5,-344 149.5,-344 149.5,-344 219.5,-344 219.5,-344 225.5,-344 231.5,-350 231.5,-356 231.5,-356 231.5,-368 231.5,-368 231.5,-374 225.5,-380 219.5,-380"/>
<text text-anchor="start" x="180.5" y="-364.4" font-family="Liberation Sans,Helvetica,Arial,sans-serif" font-weight="bold" font-size="12.00" fill="#002b36">q</text>
<text text-anchor="start" x="145.5" y="-354" font-family="Liberation Sans,Helvetica,Arial,sans-serif" font-size="10.00" fill="#268bd2">2 values (1 sinks)</text>
</g>
<!-- subtract -->
<g id="node8" class="node">
<title>subtract</title>
<path fill="none" stroke="#dc322f" stroke-width="1.5" d="M171.5,-134C171.5,-134 119.5,-134 119.5,-134 113.5,-134 107.5,-128 107.5,-122 107.5,-122 107.5,-106 107.5,-106 107.5,-100 113.5,-94 119.5,-94 119.5,-94 171.5,-94 171.5,-94 177.5,-94 183.5,-100 183.5,-106 183.5,-106 183.5,-122 183.5,-122 183.5,-128 177.5,-134 171.5,-134"/>
<text text-anchor="start" x="121.5" y="-121.4" font-family="Liberation Sans,Helvetica,Arial,sans-serif" font-weight="bold" font-size="12.00" fill="#002b36">subtract</text>
<text text-anchor="start" x="115.5" y="-111" font-family="Liberation Sans,Helvetica,Arial,sans-serif" font-size="10.00" fill="#002b36">@op:subtract</text>
<text text-anchor="start" x="131" y="-101" font-family="Liberation Sans,Helvetica,Arial,sans-serif" font-size="10.00" fill="#dc322f">1 calls</text>
</g>
<!-- q&#45;&gt;subtract -->
<g id="edge3" class="edge">
<title>q&#45;&gt;subtract</title>
<path fill="none" stroke="#002b36" d="M184.56,-343.86C184.29,-307.71 181.52,-221.31 162.5,-152 161.73,-149.19 160.76,-146.32 159.69,-143.49"/>
<polygon fill="#002b36" stroke="#002b36" points="162.85,-141.98 155.73,-134.14 156.41,-144.71 162.85,-141.98"/>
<text text-anchor="middle" x="202" y="-260" font-family="Liberation Sans,Helvetica,Arial,sans-serif" font-size="10.00" fill="#002b36">q</text>
<text text-anchor="middle" x="202" y="-249" font-family="Liberation Sans,Helvetica,Arial,sans-serif" font-size="10.00" fill="#002b36">(1 values)</text>
</g>
<!-- y -->
<g id="node2" class="node">
<title>y</title>
<path fill="none" stroke="#268bd2" stroke-width="1.5" d="M93,-626C93,-626 12,-626 12,-626 6,-626 0,-620 0,-614 0,-614 0,-602 0,-602 0,-596 6,-590 12,-590 12,-590 93,-590 93,-590 99,-590 105,-596 105,-602 105,-602 105,-614 105,-614 105,-620 99,-626 93,-626"/>
<text text-anchor="start" x="49" y="-610.4" font-family="Liberation Sans,Helvetica,Arial,sans-serif" font-weight="bold" font-size="12.00" fill="#002b36">y</text>
<text text-anchor="start" x="8" y="-600" font-family="Liberation Sans,Helvetica,Arial,sans-serif" font-size="10.00" fill="#268bd2">2 values (2 sources)</text>
</g>
<!-- add -->
<g id="node7" class="node">
<title>add</title>
<path fill="none" stroke="#dc322f" stroke-width="1.5" d="M162.5,-532C162.5,-532 130.5,-532 130.5,-532 124.5,-532 118.5,-526 118.5,-520 118.5,-520 118.5,-504 118.5,-504 118.5,-498 124.5,-492 130.5,-492 130.5,-492 162.5,-492 162.5,-492 168.5,-492 174.5,-498 174.5,-504 174.5,-504 174.5,-520 174.5,-520 174.5,-526 168.5,-532 162.5,-532"/>
<text text-anchor="start" x="135.5" y="-519.4" font-family="Liberation Sans,Helvetica,Arial,sans-serif" font-weight="bold" font-size="12.00" fill="#002b36">add</text>
<text text-anchor="start" x="126.5" y="-509" font-family="Liberation Sans,Helvetica,Arial,sans-serif" font-size="10.00" fill="#002b36">@op:add</text>
<text text-anchor="start" x="132" y="-499" font-family="Liberation Sans,Helvetica,Arial,sans-serif" font-size="10.00" fill="#dc322f">2 calls</text>
</g>
<!-- y&#45;&gt;add -->
<g id="edge7" class="edge">
<title>y&#45;&gt;add</title>
<path fill="none" stroke="#002b36" d="M69.74,-589.76C83.9,-575.6 104.17,-555.33 120.33,-539.17"/>
<polygon fill="#002b36" stroke="#002b36" points="122.83,-541.62 127.43,-532.07 117.88,-536.67 122.83,-541.62"/>
<text text-anchor="middle" x="129" y="-564" font-family="Liberation Sans,Helvetica,Arial,sans-serif" font-size="10.00" fill="#002b36">y</text>
<text text-anchor="middle" x="129" y="-553" font-family="Liberation Sans,Helvetica,Arial,sans-serif" font-size="10.00" fill="#002b36">(2 values)</text>
</g>
<!-- multiply -->
<g id="node9" class="node">
<title>multiply</title>
<path fill="none" stroke="#dc322f" stroke-width="1.5" d="M114.5,-326C114.5,-326 64.5,-326 64.5,-326 58.5,-326 52.5,-320 52.5,-314 52.5,-314 52.5,-298 52.5,-298 52.5,-292 58.5,-286 64.5,-286 64.5,-286 114.5,-286 114.5,-286 120.5,-286 126.5,-292 126.5,-298 126.5,-298 126.5,-314 126.5,-314 126.5,-320 120.5,-326 114.5,-326"/>
<text text-anchor="start" x="66.5" y="-313.4" font-family="Liberation Sans,Helvetica,Arial,sans-serif" font-weight="bold" font-size="12.00" fill="#002b36">multiply</text>
<text text-anchor="start" x="60.5" y="-303" font-family="Liberation Sans,Helvetica,Arial,sans-serif" font-size="10.00" fill="#002b36">@op:multiply</text>
<text text-anchor="start" x="75" y="-293" font-family="Liberation Sans,Helvetica,Arial,sans-serif" font-size="10.00" fill="#dc322f">1 calls</text>
</g>
<!-- y&#45;&gt;multiply -->
<g id="edge8" class="edge">
<title>y&#45;&gt;multiply</title>
<path fill="none" stroke="#002b36" d="M52.8,-589.88C53.81,-547.65 58.27,-435.33 77.5,-344 78.05,-341.37 78.73,-338.65 79.47,-335.95"/>
<polygon fill="#002b36" stroke="#002b36" points="82.82,-336.96 82.36,-326.38 76.12,-334.94 82.82,-336.96"/>
<text text-anchor="middle" x="83" y="-466" font-family="Liberation Sans,Helvetica,Arial,sans-serif" font-size="10.00" fill="#002b36">b</text>
<text text-anchor="middle" x="83" y="-455" font-family="Liberation Sans,Helvetica,Arial,sans-serif" font-size="10.00" fill="#002b36">(1 values)</text>
</g>
<!-- v -->
<g id="node3" class="node">
<title>v</title>
<path fill="none" stroke="#268bd2" stroke-width="1.5" d="M180.5,-36C180.5,-36 110.5,-36 110.5,-36 104.5,-36 98.5,-30 98.5,-24 98.5,-24 98.5,-12 98.5,-12 98.5,-6 104.5,0 110.5,0 110.5,0 180.5,0 180.5,0 186.5,0 192.5,-6 192.5,-12 192.5,-12 192.5,-24 192.5,-24 192.5,-30 186.5,-36 180.5,-36"/>
<text text-anchor="start" x="142" y="-20.4" font-family="Liberation Sans,Helvetica,Arial,sans-serif" font-weight="bold" font-size="12.00" fill="#002b36">v</text>
<text text-anchor="start" x="106.5" y="-10" font-family="Liberation Sans,Helvetica,Arial,sans-serif" font-size="10.00" fill="#268bd2">1 values (1 sinks)</text>
</g>
<!-- a -->
<g id="node4" class="node">
<title>a</title>
<path fill="none" stroke="#268bd2" stroke-width="1.5" d="M128.5,-434C128.5,-434 98.5,-434 98.5,-434 92.5,-434 86.5,-428 86.5,-422 86.5,-422 86.5,-410 86.5,-410 86.5,-404 92.5,-398 98.5,-398 98.5,-398 128.5,-398 128.5,-398 134.5,-398 140.5,-404 140.5,-410 140.5,-410 140.5,-422 140.5,-422 140.5,-428 134.5,-434 128.5,-434"/>
<text text-anchor="start" x="110" y="-418.4" font-family="Liberation Sans,Helvetica,Arial,sans-serif" font-weight="bold" font-size="12.00" fill="#002b36">a</text>
<text text-anchor="start" x="95" y="-408" font-family="Liberation Sans,Helvetica,Arial,sans-serif" font-size="10.00" fill="#268bd2">1 values</text>
</g>
<!-- a&#45;&gt;multiply -->
<g id="edge10" class="edge">
<title>a&#45;&gt;multiply</title>
<path fill="none" stroke="#002b36" d="M96.08,-397.91C91.78,-392.62 87.77,-386.46 85.5,-380 80.61,-366.07 80.99,-349.72 82.86,-336.03"/>
<polygon fill="#002b36" stroke="#002b36" points="86.32,-336.61 84.52,-326.17 79.41,-335.45 86.32,-336.61"/>
<text text-anchor="middle" x="107" y="-365" font-family="Liberation Sans,Helvetica,Arial,sans-serif" font-size="10.00" fill="#002b36">a</text>
<text text-anchor="middle" x="107" y="-354" font-family="Liberation Sans,Helvetica,Arial,sans-serif" font-size="10.00" fill="#002b36">(1 values)</text>
</g>
<!-- x -->
<g id="node5" class="node">
<title>x</title>
<path fill="none" stroke="#268bd2" stroke-width="1.5" d="M216,-626C216,-626 135,-626 135,-626 129,-626 123,-620 123,-614 123,-614 123,-602 123,-602 123,-596 129,-590 135,-590 135,-590 216,-590 216,-590 222,-590 228,-596 228,-602 228,-602 228,-614 228,-614 228,-620 222,-626 216,-626"/>
<text text-anchor="start" x="172" y="-610.4" font-family="Liberation Sans,Helvetica,Arial,sans-serif" font-weight="bold" font-size="12.00" fill="#002b36">x</text>
<text text-anchor="start" x="131" y="-600" font-family="Liberation Sans,Helvetica,Arial,sans-serif" font-size="10.00" fill="#268bd2">2 values (2 sources)</text>
</g>
<!-- x&#45;&gt;add -->
<g id="edge6" class="edge">
<title>x&#45;&gt;add</title>
<path fill="none" stroke="#002b36" d="M170.18,-589.76C166.05,-576.37 160.23,-557.5 155.39,-541.82"/>
<polygon fill="#002b36" stroke="#002b36" points="158.68,-540.6 152.38,-532.07 151.99,-542.66 158.68,-540.6"/>
<text text-anchor="middle" x="185" y="-564" font-family="Liberation Sans,Helvetica,Arial,sans-serif" font-size="10.00" fill="#002b36">x</text>
<text text-anchor="middle" x="185" y="-553" font-family="Liberation Sans,Helvetica,Arial,sans-serif" font-size="10.00" fill="#002b36">(2 values)</text>
</g>
<!-- p -->
<g id="node6" class="node">
<title>p</title>
<path fill="none" stroke="#268bd2" stroke-width="1.5" d="M127.5,-228C127.5,-228 97.5,-228 97.5,-228 91.5,-228 85.5,-222 85.5,-216 85.5,-216 85.5,-204 85.5,-204 85.5,-198 91.5,-192 97.5,-192 97.5,-192 127.5,-192 127.5,-192 133.5,-192 139.5,-198 139.5,-204 139.5,-204 139.5,-216 139.5,-216 139.5,-222 133.5,-228 127.5,-228"/>
<text text-anchor="start" x="108.5" y="-212.4" font-family="Liberation Sans,Helvetica,Arial,sans-serif" font-weight="bold" font-size="12.00" fill="#002b36">p</text>
<text text-anchor="start" x="94" y="-202" font-family="Liberation Sans,Helvetica,Arial,sans-serif" font-size="10.00" fill="#268bd2">1 values</text>
</g>
<!-- p&#45;&gt;subtract -->
<g id="edge2" class="edge">
<title>p&#45;&gt;subtract</title>
<path fill="none" stroke="#002b36" d="M112.45,-191.76C112.93,-180.18 114.59,-164.75 119.5,-152 120.68,-148.92 122.18,-145.86 123.85,-142.89"/>
<polygon fill="#002b36" stroke="#002b36" points="126.88,-144.65 129.27,-134.33 120.96,-140.91 126.88,-144.65"/>
<text text-anchor="middle" x="141" y="-166" font-family="Liberation Sans,Helvetica,Arial,sans-serif" font-size="10.00" fill="#002b36">p</text>
<text text-anchor="middle" x="141" y="-155" font-family="Liberation Sans,Helvetica,Arial,sans-serif" font-size="10.00" fill="#002b36">(1 values)</text>
</g>
<!-- add&#45;&gt;q -->
<g id="edge4" class="edge">
<title>add&#45;&gt;q</title>
<path fill="none" stroke="#002b36" d="M155.76,-491.71C158.21,-486.09 160.67,-479.88 162.5,-474 171.22,-445.99 177.26,-412.88 180.77,-390.16"/>
<polygon fill="#002b36" stroke="#002b36" points="184.24,-390.61 182.25,-380.21 177.32,-389.58 184.24,-390.61"/>
<text text-anchor="middle" x="189" y="-466" font-family="Liberation Sans,Helvetica,Arial,sans-serif" font-size="10.00" fill="#002b36">output_0</text>
<text text-anchor="middle" x="189" y="-455" font-family="Liberation Sans,Helvetica,Arial,sans-serif" font-size="10.00" fill="#002b36">(2 values)</text>
</g>
<!-- add&#45;&gt;a -->
<g id="edge5" class="edge">
<title>add&#45;&gt;a</title>
<path fill="none" stroke="#002b36" d="M129.56,-491.78C125.63,-486.36 121.9,-480.23 119.5,-474 115.94,-464.76 114.24,-454.08 113.49,-444.49"/>
<polygon fill="#002b36" stroke="#002b36" points="116.98,-444.08 113.01,-434.25 109.99,-444.41 116.98,-444.08"/>
<text text-anchor="middle" x="141" y="-466" font-family="Liberation Sans,Helvetica,Arial,sans-serif" font-size="10.00" fill="#002b36">output_0</text>
<text text-anchor="middle" x="141" y="-455" font-family="Liberation Sans,Helvetica,Arial,sans-serif" font-size="10.00" fill="#002b36">(1 values)</text>
</g>
<!-- subtract&#45;&gt;v -->
<g id="edge1" class="edge">
<title>subtract&#45;&gt;v</title>
<path fill="none" stroke="#002b36" d="M145.5,-93.98C145.5,-80.34 145.5,-61.75 145.5,-46.5"/>
<polygon fill="#002b36" stroke="#002b36" points="149,-46.1 145.5,-36.1 142,-46.1 149,-46.1"/>
<text text-anchor="middle" x="167" y="-68" font-family="Liberation Sans,Helvetica,Arial,sans-serif" font-size="10.00" fill="#002b36">output_0</text>
<text text-anchor="middle" x="167" y="-57" font-family="Liberation Sans,Helvetica,Arial,sans-serif" font-size="10.00" fill="#002b36">(1 values)</text>
</g>
<!-- multiply&#45;&gt;p -->
<g id="edge9" class="edge">
<title>multiply&#45;&gt;p</title>
<path fill="none" stroke="#002b36" d="M94.15,-285.98C97.52,-272.2 102.13,-253.39 105.88,-238.05"/>
<polygon fill="#002b36" stroke="#002b36" points="109.34,-238.64 108.32,-228.1 102.54,-236.98 109.34,-238.64"/>
<text text-anchor="middle" x="125" y="-260" font-family="Liberation Sans,Helvetica,Arial,sans-serif" font-size="10.00" fill="#002b36">output_0</text>
<text text-anchor="middle" x="125" y="-249" font-family="Liberation Sans,Helvetica,Arial,sans-serif" font-size="10.00" fill="#002b36">(1 values)</text>
</g>
</g>
</svg>
