<?xml version="1.0" encoding="UTF-8" standalone="no"?>
<!DOCTYPE svg PUBLIC "-//W3C//DTD SVG 1.1//EN"
 "http://www.w3.org/Graphics/SVG/1.1/DTD/svg11.dtd">
<!-- Generated by graphviz version 2.50.0 (0)
 -->
<!-- Title: G Pages: 1 -->
<svg width="328pt" height="638pt"
 viewBox="0.00 0.00 328.00 638.00" xmlns="http://www.w3.org/2000/svg" xmlns:xlink="http://www.w3.org/1999/xlink">
<g id="graph0" class="graph" transform="scale(1 1) rotate(0) translate(4 634)">
<title>G</title>
<polygon fill="white" stroke="transparent" points="-4,4 -4,-634 324,-634 324,4 -4,4"/>
<!-- y -->
<g id="node1" class="node">
<title>y</title>
<path fill="none" stroke="#268bd2" stroke-width="1.5" d="M119.5,-420C119.5,-420 74.5,-420 74.5,-420 68.5,-420 62.5,-414 62.5,-408 62.5,-408 62.5,-396 62.5,-396 62.5,-390 68.5,-384 74.5,-384 74.5,-384 119.5,-384 119.5,-384 125.5,-384 131.5,-390 131.5,-396 131.5,-396 131.5,-408 131.5,-408 131.5,-414 125.5,-420 119.5,-420"/>
<text text-anchor="start" x="93.5" y="-404.4" font-family="Liberation Sans,Helvetica,Arial,sans-serif" font-weight="bold" font-size="12.00" fill="#002b36">y</text>
<text text-anchor="start" x="70.5" y="-394" font-family="Liberation Sans,Helvetica,Arial,sans-serif" font-size="10.00" fill="#268bd2">5000 values</text>
</g>
<!-- divmod_ -->
<g id="node8" class="node">
<title>divmod_</title>
<path fill="none" stroke="#dc322f" stroke-width="1.5" d="M129.5,-134C129.5,-134 76.5,-134 76.5,-134 70.5,-134 64.5,-128 64.5,-122 64.5,-122 64.5,-106 64.5,-106 64.5,-100 70.5,-94 76.5,-94 76.5,-94 129.5,-94 129.5,-94 135.5,-94 141.5,-100 141.5,-106 141.5,-106 141.5,-122 141.5,-122 141.5,-128 135.5,-134 129.5,-134"/>
<text text-anchor="start" x="78" y="-121.4" font-family="Liberation Sans,Helvetica,Arial,sans-serif" font-weight="bold" font-size="12.00" fill="#002b36">divmod_</text>
<text text-anchor="start" x="72.5" y="-111" font-family="Liberation Sans,Helvetica,Arial,sans-serif" font-size="10.00" fill="#002b36">@op:divmod_</text>
<text text-anchor="start" x="88.5" y="-101" font-family="Liberation Sans,Helvetica,Arial,sans-serif" font-size="10.00" fill="#dc322f">5 calls</text>
</g>
<!-- y&#45;&gt;divmod_ -->
<g id="edge3" class="edge">
<title>y&#45;&gt;divmod_</title>
<path fill="none" stroke="#002b36" d="M97.36,-383.97C98.35,-336.76 101.14,-203.82 102.38,-144.37"/>
<polygon fill="#002b36" stroke="#002b36" points="105.89,-144.24 102.6,-134.16 98.89,-144.09 105.89,-144.24"/>
<text text-anchor="middle" x="122.5" y="-260" font-family="Liberation Sans,Helvetica,Arial,sans-serif" font-size="10.00" fill="#002b36">u</text>
<text text-anchor="middle" x="122.5" y="-249" font-family="Liberation Sans,Helvetica,Arial,sans-serif" font-size="10.00" fill="#002b36">(5 values)</text>
</g>
<!-- add -->
<g id="node9" class="node">
<title>add</title>
<path fill="none" stroke="#dc322f" stroke-width="1.5" d="M208.5,-326C208.5,-326 171.5,-326 171.5,-326 165.5,-326 159.5,-320 159.5,-314 159.5,-314 159.5,-298 159.5,-298 159.5,-292 165.5,-286 171.5,-286 171.5,-286 208.5,-286 208.5,-286 214.5,-286 220.5,-292 220.5,-298 220.5,-298 220.5,-314 220.5,-314 220.5,-320 214.5,-326 208.5,-326"/>
<text text-anchor="start" x="179" y="-313.4" font-family="Liberation Sans,Helvetica,Arial,sans-serif" font-weight="bold" font-size="12.00" fill="#002b36">add</text>
<text text-anchor="start" x="170" y="-303" font-family="Liberation Sans,Helvetica,Arial,sans-serif" font-size="10.00" fill="#002b36">@op:add</text>
<text text-anchor="start" x="167.5" y="-293" font-family="Liberation Sans,Helvetica,Arial,sans-serif" font-size="10.00" fill="#dc322f">5000 calls</text>
</g>
<!-- y&#45;&gt;add -->
<g id="edge2" class="edge">
<title>y&#45;&gt;add</title>
<path fill="none" stroke="#002b36" d="M104.54,-383.86C110.48,-371.73 119.64,-355.62 131,-344 136.77,-338.1 143.65,-332.72 150.64,-328"/>
<polygon fill="#002b36" stroke="#002b36" points="152.92,-330.7 159.48,-322.39 149.16,-324.79 152.92,-330.7"/>
<text text-anchor="middle" x="160.5" y="-358" font-family="Liberation Sans,Helvetica,Arial,sans-serif" font-size="10.00" fill="#002b36">y</text>
<text text-anchor="middle" x="160.5" y="-347" font-family="Liberation Sans,Helvetica,Arial,sans-serif" font-size="10.00" fill="#002b36">(5000 values)</text>
</g>
<!-- w -->
<g id="node2" class="node">
<title>w</title>
<path fill="none" stroke="#268bd2" stroke-width="1.5" d="M249.5,-630C249.5,-630 136.5,-630 136.5,-630 130.5,-630 124.5,-624 124.5,-618 124.5,-618 124.5,-606 124.5,-606 124.5,-600 130.5,-594 136.5,-594 136.5,-594 249.5,-594 249.5,-594 255.5,-594 261.5,-600 261.5,-606 261.5,-606 261.5,-618 261.5,-618 261.5,-624 255.5,-630 249.5,-630"/>
<text text-anchor="start" x="188" y="-614.4" font-family="Liberation Sans,Helvetica,Arial,sans-serif" font-weight="bold" font-size="12.00" fill="#002b36">w</text>
<text text-anchor="start" x="132.5" y="-604" font-family="Liberation Sans,Helvetica,Arial,sans-serif" font-size="10.00" fill="#268bd2">5000 values (5000 sources)</text>
</g>
<!-- inc -->
<g id="node7" class="node">
<title>inc</title>
<path fill="none" stroke="#dc322f" stroke-width="1.5" d="M166.5,-536C166.5,-536 129.5,-536 129.5,-536 123.5,-536 117.5,-530 117.5,-524 117.5,-524 117.5,-508 117.5,-508 117.5,-502 123.5,-496 129.5,-496 129.5,-496 166.5,-496 166.5,-496 172.5,-496 178.5,-502 178.5,-508 178.5,-508 178.5,-524 178.5,-524 178.5,-530 172.5,-536 166.5,-536"/>
<text text-anchor="start" x="139" y="-523.4" font-family="Liberation Sans,Helvetica,Arial,sans-serif" font-weight="bold" font-size="12.00" fill="#002b36">inc</text>
<text text-anchor="start" x="129.5" y="-513" font-family="Liberation Sans,Helvetica,Arial,sans-serif" font-size="10.00" fill="#002b36">@op:inc</text>
<text text-anchor="start" x="125.5" y="-503" font-family="Liberation Sans,Helvetica,Arial,sans-serif" font-size="10.00" fill="#dc322f">5000 calls</text>
</g>
<!-- w&#45;&gt;inc -->
<g id="edge5" class="edge">
<title>w&#45;&gt;inc</title>
<path fill="none" stroke="#002b36" d="M169.23,-593.92C163.7,-588.78 158.43,-582.71 155,-576 150.38,-566.96 148.28,-556.15 147.44,-546.27"/>
<polygon fill="#002b36" stroke="#002b36" points="150.93,-545.87 146.97,-536.04 143.94,-546.19 150.93,-545.87"/>
<text text-anchor="middle" x="184.5" y="-568" font-family="Liberation Sans,Helvetica,Arial,sans-serif" font-size="10.00" fill="#002b36">x</text>
<text text-anchor="middle" x="184.5" y="-557" font-family="Liberation Sans,Helvetica,Arial,sans-serif" font-size="10.00" fill="#002b36">(5000 values)</text>
</g>
<!-- square -->
<g id="node10" class="node">
<title>square</title>
<path fill="none" stroke="#dc322f" stroke-width="1.5" d="M284,-478C284,-478 238,-478 238,-478 232,-478 226,-472 226,-466 226,-466 226,-450 226,-450 226,-444 232,-438 238,-438 238,-438 284,-438 284,-438 290,-438 296,-444 296,-450 296,-450 296,-466 296,-466 296,-472 290,-478 284,-478"/>
<text text-anchor="start" x="241" y="-465.4" font-family="Liberation Sans,Helvetica,Arial,sans-serif" font-weight="bold" font-size="12.00" fill="#002b36">square</text>
<text text-anchor="start" x="234" y="-455" font-family="Liberation Sans,Helvetica,Arial,sans-serif" font-size="10.00" fill="#002b36">@op:square</text>
<text text-anchor="start" x="246.5" y="-445" font-family="Liberation Sans,Helvetica,Arial,sans-serif" font-size="10.00" fill="#dc322f">5 calls</text>
</g>
<!-- w&#45;&gt;square -->
<g id="edge4" class="edge">
<title>w&#45;&gt;square</title>
<path fill="none" stroke="#002b36" d="M204.02,-593.86C207.42,-588.27 211.04,-581.97 214,-576 228.58,-546.67 242.17,-511.66 250.95,-487.62"/>
<polygon fill="#002b36" stroke="#002b36" points="254.3,-488.64 254.41,-478.04 247.72,-486.26 254.3,-488.64"/>
<text text-anchor="middle" x="244.5" y="-568" font-family="Liberation Sans,Helvetica,Arial,sans-serif" font-size="10.00" fill="#002b36">w</text>
<text text-anchor="middle" x="244.5" y="-557" font-family="Liberation Sans,Helvetica,Arial,sans-serif" font-size="10.00" fill="#002b36">(5 values)</text>
</g>
<!-- var_1 -->
<g id="node3" class="node">
<title>var_1</title>
<path fill="none" stroke="#268bd2" stroke-width="1.5" d="M82,-36C82,-36 12,-36 12,-36 6,-36 0,-30 0,-24 0,-24 0,-12 0,-12 0,-6 6,0 12,0 12,0 82,0 82,0 88,0 94,-6 94,-12 94,-12 94,-24 94,-24 94,-30 88,-36 82,-36"/>
<text text-anchor="start" x="31" y="-20.4" font-family="Liberation Sans,Helvetica,Arial,sans-serif" font-weight="bold" font-size="12.00" fill="#002b36">var_1</text>
<text text-anchor="start" x="8" y="-10" font-family="Liberation Sans,Helvetica,Arial,sans-serif" font-size="10.00" fill="#268bd2">5 values (5 sinks)</text>
</g>
<!-- var_0 -->
<g id="node4" class="node">
<title>var_0</title>
<path fill="none" stroke="#268bd2" stroke-width="1.5" d="M240.5,-228C240.5,-228 139.5,-228 139.5,-228 133.5,-228 127.5,-222 127.5,-216 127.5,-216 127.5,-204 127.5,-204 127.5,-198 133.5,-192 139.5,-192 139.5,-192 240.5,-192 240.5,-192 246.5,-192 252.5,-198 252.5,-204 252.5,-204 252.5,-216 252.5,-216 252.5,-222 246.5,-228 240.5,-228"/>
<text text-anchor="start" x="174" y="-212.4" font-family="Liberation Sans,Helvetica,Arial,sans-serif" font-weight="bold" font-size="12.00" fill="#002b36">var_0</text>
<text text-anchor="start" x="135.5" y="-202" font-family="Liberation Sans,Helvetica,Arial,sans-serif" font-size="10.00" fill="#268bd2">5005 values (5000 sinks)</text>
</g>
<!-- var_0&#45;&gt;divmod_ -->
<g id="edge7" class="edge">
<title>var_0&#45;&gt;divmod_</title>
<path fill="none" stroke="#002b36" d="M174.04,-191.76C161.06,-177.73 142.51,-157.69 127.63,-141.61"/>
<polygon fill="#002b36" stroke="#002b36" points="130.01,-139.03 120.65,-134.07 124.88,-143.79 130.01,-139.03"/>
<text text-anchor="middle" x="177.5" y="-166" font-family="Liberation Sans,Helvetica,Arial,sans-serif" font-size="10.00" fill="#002b36">v</text>
<text text-anchor="middle" x="177.5" y="-155" font-family="Liberation Sans,Helvetica,Arial,sans-serif" font-size="10.00" fill="#002b36">(5 values)</text>
</g>
<!-- var_2 -->
<g id="node5" class="node">
<title>var_2</title>
<path fill="none" stroke="#268bd2" stroke-width="1.5" d="M194,-36C194,-36 124,-36 124,-36 118,-36 112,-30 112,-24 112,-24 112,-12 112,-12 112,-6 118,0 124,0 124,0 194,0 194,0 200,0 206,-6 206,-12 206,-12 206,-24 206,-24 206,-30 200,-36 194,-36"/>
<text text-anchor="start" x="143" y="-20.4" font-family="Liberation Sans,Helvetica,Arial,sans-serif" font-weight="bold" font-size="12.00" fill="#002b36">var_2</text>
<text text-anchor="start" x="120" y="-10" font-family="Liberation Sans,Helvetica,Arial,sans-serif" font-size="10.00" fill="#268bd2">5 values (5 sinks)</text>
</g>
<!-- z -->
<g id="node6" class="node">
<title>z</title>
<path fill="none" stroke="#268bd2" stroke-width="1.5" d="M242.5,-420C242.5,-420 161.5,-420 161.5,-420 155.5,-420 149.5,-414 149.5,-408 149.5,-408 149.5,-396 149.5,-396 149.5,-390 155.5,-384 161.5,-384 161.5,-384 242.5,-384 242.5,-384 248.5,-384 254.5,-390 254.5,-396 254.5,-396 254.5,-408 254.5,-408 254.5,-414 248.5,-420 242.5,-420"/>
<text text-anchor="start" x="198.5" y="-404.4" font-family="Liberation Sans,Helvetica,Arial,sans-serif" font-weight="bold" font-size="12.00" fill="#002b36">z</text>
<text text-anchor="start" x="157.5" y="-394" font-family="Liberation Sans,Helvetica,Arial,sans-serif" font-size="10.00" fill="#268bd2">1 values (1 sources)</text>
</g>
<!-- z&#45;&gt;add -->
<g id="edge8" class="edge">
<title>z&#45;&gt;add</title>
<path fill="none" stroke="#002b36" d="M199.8,-383.76C198.11,-370.5 195.73,-351.86 193.74,-336.27"/>
<polygon fill="#002b36" stroke="#002b36" points="197.17,-335.55 192.43,-326.07 190.23,-336.43 197.17,-335.55"/>
<text text-anchor="middle" x="218.5" y="-358" font-family="Liberation Sans,Helvetica,Arial,sans-serif" font-size="10.00" fill="#002b36">z</text>
<text text-anchor="middle" x="218.5" y="-347" font-family="Liberation Sans,Helvetica,Arial,sans-serif" font-size="10.00" fill="#002b36">(1 values)</text>
</g>
<!-- inc&#45;&gt;y -->
<g id="edge9" class="edge">
<title>inc&#45;&gt;y</title>
<path fill="none" stroke="#002b36" d="M139.23,-495.75C130.91,-477.47 118.33,-449.85 109.07,-429.5"/>
<polygon fill="#002b36" stroke="#002b36" points="112.15,-427.82 104.82,-420.17 105.78,-430.72 112.15,-427.82"/>
<text text-anchor="middle" x="160.5" y="-461" font-family="Liberation Sans,Helvetica,Arial,sans-serif" font-size="10.00" fill="#002b36">output_0</text>
<text text-anchor="middle" x="160.5" y="-450" font-family="Liberation Sans,Helvetica,Arial,sans-serif" font-size="10.00" fill="#002b36">(5000 values)</text>
</g>
<!-- divmod_&#45;&gt;var_1 -->
<g id="edge10" class="edge">
<title>divmod_&#45;&gt;var_1</title>
<path fill="none" stroke="#002b36" d="M91.67,-93.98C83.23,-79.81 71.6,-60.3 62.33,-44.74"/>
<polygon fill="#002b36" stroke="#002b36" points="65.31,-42.9 57.19,-36.1 59.3,-46.48 65.31,-42.9"/>
<text text-anchor="middle" x="102.5" y="-68" font-family="Liberation Sans,Helvetica,Arial,sans-serif" font-size="10.00" fill="#002b36">output_0</text>
<text text-anchor="middle" x="102.5" y="-57" font-family="Liberation Sans,Helvetica,Arial,sans-serif" font-size="10.00" fill="#002b36">(5 values)</text>
</g>
<!-- divmod_&#45;&gt;var_2 -->
<g id="edge11" class="edge">
<title>divmod_&#45;&gt;var_2</title>
<path fill="none" stroke="#002b36" d="M116.59,-93.64C120.4,-88.02 124.46,-81.83 128,-76 134.03,-66.08 140.23,-54.91 145.48,-45.1"/>
<polygon fill="#002b36" stroke="#002b36" points="148.61,-46.68 150.2,-36.2 142.42,-43.4 148.61,-46.68"/>
<text text-anchor="middle" x="162.5" y="-68" font-family="Liberation Sans,Helvetica,Arial,sans-serif" font-size="10.00" fill="#002b36">output_1</text>
<text text-anchor="middle" x="162.5" y="-57" font-family="Liberation Sans,Helvetica,Arial,sans-serif" font-size="10.00" fill="#002b36">(5 values)</text>
</g>
<!-- add&#45;&gt;var_0 -->
<g id="edge6" class="edge">
<title>add&#45;&gt;var_0</title>
<path fill="none" stroke="#002b36" d="M190,-285.98C190,-272.34 190,-253.75 190,-238.5"/>
<polygon fill="#002b36" stroke="#002b36" points="193.5,-238.1 190,-228.1 186.5,-238.1 193.5,-238.1"/>
<text text-anchor="middle" x="219.5" y="-260" font-family="Liberation Sans,Helvetica,Arial,sans-serif" font-size="10.00" fill="#002b36">output_0</text>
<text text-anchor="middle" x="219.5" y="-249" font-family="Liberation Sans,Helvetica,Arial,sans-serif" font-size="10.00" fill="#002b36">(5000 values)</text>
</g>
<!-- square&#45;&gt;var_0 -->
<g id="edge1" class="edge">
<title>square&#45;&gt;var_0</title>
<path fill="none" stroke="#002b36" d="M266.22,-437.92C275.83,-398.48 291.97,-306.58 253,-246 250.15,-241.58 246.54,-237.66 242.5,-234.21"/>
<polygon fill="#002b36" stroke="#002b36" points="244.38,-231.25 234.26,-228.12 240.22,-236.88 244.38,-231.25"/>
<text text-anchor="middle" x="298.5" y="-358" font-family="Liberation Sans,Helvetica,Arial,sans-serif" font-size="10.00" fill="#002b36">output_0</text>
<text text-anchor="middle" x="298.5" y="-347" font-family="Liberation Sans,Helvetica,Arial,sans-serif" font-size="10.00" fill="#002b36">(5 values)</text>
</g>
</g>
</svg>
