<?xml version="1.0" encoding="UTF-8" standalone="no"?>
<!DOCTYPE svg PUBLIC "-//W3C//DTD SVG 1.1//EN"
 "http://www.w3.org/Graphics/SVG/1.1/DTD/svg11.dtd">
<!-- Generated by graphviz version 2.50.0 (0)
 -->
<!-- Title: G Pages: 1 -->
<svg width="217pt" height="620pt"
 viewBox="0.00 0.00 217.00 620.00" xmlns="http://www.w3.org/2000/svg" xmlns:xlink="http://www.w3.org/1999/xlink">
<g id="graph0" class="graph" transform="scale(1 1) rotate(0) translate(4 616)">
<title>G</title>
<polygon fill="white" stroke="transparent" points="-4,4 -4,-616 213,-616 213,4 -4,4"/>
<!-- x -->
<g id="node1" class="node">
<title>x</title>
<path fill="none" stroke="#268bd2" stroke-width="1.5" d="M149.5,-612C149.5,-612 68.5,-612 68.5,-612 62.5,-612 56.5,-606 56.5,-600 56.5,-600 56.5,-588 56.5,-588 56.5,-582 62.5,-576 68.5,-576 68.5,-576 149.5,-576 149.5,-576 155.5,-576 161.5,-582 161.5,-588 161.5,-588 161.5,-600 161.5,-600 161.5,-606 155.5,-612 149.5,-612"/>
<text text-anchor="start" x="105.5" y="-596.4" font-family="Liberation Sans,Helvetica,Arial,sans-serif" font-weight="bold" font-size="12.00" fill="#002b36">x</text>
<text text-anchor="start" x="64.5" y="-586" font-family="Liberation Sans,Helvetica,Arial,sans-serif" font-size="10.00" fill="#268bd2">5 values (5 sources)</text>
</g>
<!-- inc -->
<g id="node8" class="node">
<title>inc</title>
<path fill="none" stroke="#dc322f" stroke-width="1.5" d="M124,-518C124,-518 94,-518 94,-518 88,-518 82,-512 82,-506 82,-506 82,-490 82,-490 82,-484 88,-478 94,-478 94,-478 124,-478 124,-478 130,-478 136,-484 136,-490 136,-490 136,-506 136,-506 136,-512 130,-518 124,-518"/>
<text text-anchor="start" x="100" y="-505.4" font-family="Liberation Sans,Helvetica,Arial,sans-serif" font-weight="bold" font-size="12.00" fill="#002b36">inc</text>
<text text-anchor="start" x="90.5" y="-495" font-family="Liberation Sans,Helvetica,Arial,sans-serif" font-size="10.00" fill="#002b36">@op:inc</text>
<text text-anchor="start" x="94.5" y="-485" font-family="Liberation Sans,Helvetica,Arial,sans-serif" font-size="10.00" fill="#dc322f">5 calls</text>
</g>
<!-- x&#45;&gt;inc -->
<g id="edge2" class="edge">
<title>x&#45;&gt;inc</title>
<path fill="none" stroke="#002b36" d="M109,-575.76C109,-562.5 109,-543.86 109,-528.27"/>
<polygon fill="#002b36" stroke="#002b36" points="112.5,-528.07 109,-518.07 105.5,-528.07 112.5,-528.07"/>
<text text-anchor="middle" x="130.5" y="-550" font-family="Liberation Sans,Helvetica,Arial,sans-serif" font-size="10.00" fill="#002b36">x</text>
<text text-anchor="middle" x="130.5" y="-539" font-family="Liberation Sans,Helvetica,Arial,sans-serif" font-size="10.00" fill="#002b36">(5 values)</text>
</g>
<!-- var_3 -->
<g id="node2" class="node">
<title>var_3</title>
<path fill="none" stroke="#268bd2" stroke-width="1.5" d="M82,-36C82,-36 12,-36 12,-36 6,-36 0,-30 0,-24 0,-24 0,-12 0,-12 0,-6 6,0 12,0 12,0 82,0 82,0 88,0 94,-6 94,-12 94,-12 94,-24 94,-24 94,-30 88,-36 82,-36"/>
<text text-anchor="start" x="31" y="-20.4" font-family="Liberation Sans,Helvetica,Arial,sans-serif" font-weight="bold" font-size="12.00" fill="#002b36">var_3</text>
<text text-anchor="start" x="8" y="-10" font-family="Liberation Sans,Helvetica,Arial,sans-serif" font-size="10.00" fill="#268bd2">5 values (5 sinks)</text>
</g>
<!-- var_0 -->
<g id="node3" class="node">
<title>var_0</title>
<path fill="none" stroke="#268bd2" stroke-width="1.5" d="M124,-420C124,-420 94,-420 94,-420 88,-420 82,-414 82,-408 82,-408 82,-396 82,-396 82,-390 88,-384 94,-384 94,-384 124,-384 124,-384 130,-384 136,-390 136,-396 136,-396 136,-408 136,-408 136,-414 130,-420 124,-420"/>
<text text-anchor="start" x="93" y="-404.4" font-family="Liberation Sans,Helvetica,Arial,sans-serif" font-weight="bold" font-size="12.00" fill="#002b36">var_0</text>
<text text-anchor="start" x="90.5" y="-394" font-family="Liberation Sans,Helvetica,Arial,sans-serif" font-size="10.00" fill="#268bd2">5 values</text>
</g>
<!-- divmod_ -->
<g id="node6" class="node">
<title>divmod_</title>
<path fill="none" stroke="#dc322f" stroke-width="1.5" d="M129.5,-134C129.5,-134 76.5,-134 76.5,-134 70.5,-134 64.5,-128 64.5,-122 64.5,-122 64.5,-106 64.5,-106 64.5,-100 70.5,-94 76.5,-94 76.5,-94 129.5,-94 129.5,-94 135.5,-94 141.5,-100 141.5,-106 141.5,-106 141.5,-122 141.5,-122 141.5,-128 135.5,-134 129.5,-134"/>
<text text-anchor="start" x="78" y="-121.4" font-family="Liberation Sans,Helvetica,Arial,sans-serif" font-weight="bold" font-size="12.00" fill="#002b36">divmod_</text>
<text text-anchor="start" x="72.5" y="-111" font-family="Liberation Sans,Helvetica,Arial,sans-serif" font-size="10.00" fill="#002b36">@op:divmod_</text>
<text text-anchor="start" x="88.5" y="-101" font-family="Liberation Sans,Helvetica,Arial,sans-serif" font-size="10.00" fill="#dc322f">5 calls</text>
</g>
<!-- var_0&#45;&gt;divmod_ -->
<g id="edge4" class="edge">
<title>var_0&#45;&gt;divmod_</title>
<path fill="none" stroke="#002b36" d="M108.64,-383.97C107.65,-336.76 104.86,-203.82 103.62,-144.37"/>
<polygon fill="#002b36" stroke="#002b36" points="107.11,-144.09 103.4,-134.16 100.11,-144.24 107.11,-144.09"/>
<text text-anchor="middle" x="127.5" y="-260" font-family="Liberation Sans,Helvetica,Arial,sans-serif" font-size="10.00" fill="#002b36">u</text>
<text text-anchor="middle" x="127.5" y="-249" font-family="Liberation Sans,Helvetica,Arial,sans-serif" font-size="10.00" fill="#002b36">(5 values)</text>
</g>
<!-- add -->
<g id="node7" class="node">
<title>add</title>
<path fill="none" stroke="#dc322f" stroke-width="1.5" d="M166,-326C166,-326 134,-326 134,-326 128,-326 122,-320 122,-314 122,-314 122,-298 122,-298 122,-292 128,-286 134,-286 134,-286 166,-286 166,-286 172,-286 178,-292 178,-298 178,-298 178,-314 178,-314 178,-320 172,-326 166,-326"/>
<text text-anchor="start" x="139" y="-313.4" font-family="Liberation Sans,Helvetica,Arial,sans-serif" font-weight="bold" font-size="12.00" fill="#002b36">add</text>
<text text-anchor="start" x="130" y="-303" font-family="Liberation Sans,Helvetica,Arial,sans-serif" font-size="10.00" fill="#002b36">@op:add</text>
<text text-anchor="start" x="135.5" y="-293" font-family="Liberation Sans,Helvetica,Arial,sans-serif" font-size="10.00" fill="#dc322f">5 calls</text>
</g>
<!-- var_0&#45;&gt;add -->
<g id="edge3" class="edge">
<title>var_0&#45;&gt;add</title>
<path fill="none" stroke="#002b36" d="M116.52,-383.76C122.42,-370.24 130.75,-351.14 137.62,-335.38"/>
<polygon fill="#002b36" stroke="#002b36" points="140.89,-336.64 141.68,-326.07 134.48,-333.84 140.89,-336.64"/>
<text text-anchor="middle" x="154.5" y="-358" font-family="Liberation Sans,Helvetica,Arial,sans-serif" font-size="10.00" fill="#002b36">y</text>
<text text-anchor="middle" x="154.5" y="-347" font-family="Liberation Sans,Helvetica,Arial,sans-serif" font-size="10.00" fill="#002b36">(5 values)</text>
</g>
<!-- var_1 -->
<g id="node4" class="node">
<title>var_1</title>
<path fill="none" stroke="#268bd2" stroke-width="1.5" d="M197,-228C197,-228 127,-228 127,-228 121,-228 115,-222 115,-216 115,-216 115,-204 115,-204 115,-198 121,-192 127,-192 127,-192 197,-192 197,-192 203,-192 209,-198 209,-204 209,-204 209,-216 209,-216 209,-222 203,-228 197,-228"/>
<text text-anchor="start" x="146" y="-212.4" font-family="Liberation Sans,Helvetica,Arial,sans-serif" font-weight="bold" font-size="12.00" fill="#002b36">var_1</text>
<text text-anchor="start" x="123" y="-202" font-family="Liberation Sans,Helvetica,Arial,sans-serif" font-size="10.00" fill="#268bd2">5 values (3 sinks)</text>
</g>
<!-- var_1&#45;&gt;divmod_ -->
<g id="edge6" class="edge">
<title>var_1&#45;&gt;divmod_</title>
<path fill="none" stroke="#002b36" d="M151.18,-191.76C142.61,-178.11 130.48,-158.78 120.53,-142.93"/>
<polygon fill="#002b36" stroke="#002b36" points="123.25,-140.68 114.97,-134.07 117.32,-144.4 123.25,-140.68"/>
<text text-anchor="middle" x="160.5" y="-166" font-family="Liberation Sans,Helvetica,Arial,sans-serif" font-size="10.00" fill="#002b36">v</text>
<text text-anchor="middle" x="160.5" y="-155" font-family="Liberation Sans,Helvetica,Arial,sans-serif" font-size="10.00" fill="#002b36">(2 values)</text>
</g>
<!-- var_2 -->
<g id="node5" class="node">
<title>var_2</title>
<path fill="none" stroke="#268bd2" stroke-width="1.5" d="M194,-36C194,-36 124,-36 124,-36 118,-36 112,-30 112,-24 112,-24 112,-12 112,-12 112,-6 118,0 124,0 124,0 194,0 194,0 200,0 206,-6 206,-12 206,-12 206,-24 206,-24 206,-30 200,-36 194,-36"/>
<text text-anchor="start" x="143" y="-20.4" font-family="Liberation Sans,Helvetica,Arial,sans-serif" font-weight="bold" font-size="12.00" fill="#002b36">var_2</text>
<text text-anchor="start" x="120" y="-10" font-family="Liberation Sans,Helvetica,Arial,sans-serif" font-size="10.00" fill="#268bd2">5 values (5 sinks)</text>
</g>
<!-- divmod_&#45;&gt;var_3 -->
<g id="edge8" class="edge">
<title>divmod_&#45;&gt;var_3</title>
<path fill="none" stroke="#002b36" d="M89.41,-93.64C85.6,-88.02 81.54,-81.83 78,-76 71.97,-66.08 65.77,-54.91 60.52,-45.1"/>
<polygon fill="#002b36" stroke="#002b36" points="63.58,-43.4 55.8,-36.2 57.39,-46.68 63.58,-43.4"/>
<text text-anchor="middle" x="99.5" y="-68" font-family="Liberation Sans,Helvetica,Arial,sans-serif" font-size="10.00" fill="#002b36">output_1</text>
<text text-anchor="middle" x="99.5" y="-57" font-family="Liberation Sans,Helvetica,Arial,sans-serif" font-size="10.00" fill="#002b36">(5 values)</text>
</g>
<!-- divmod_&#45;&gt;var_2 -->
<g id="edge7" class="edge">
<title>divmod_&#45;&gt;var_2</title>
<path fill="none" stroke="#002b36" d="M114.33,-93.98C122.77,-79.81 134.4,-60.3 143.67,-44.74"/>
<polygon fill="#002b36" stroke="#002b36" points="146.7,-46.48 148.81,-36.1 140.69,-42.9 146.7,-46.48"/>
<text text-anchor="middle" x="158.5" y="-68" font-family="Liberation Sans,Helvetica,Arial,sans-serif" font-size="10.00" fill="#002b36">output_0</text>
<text text-anchor="middle" x="158.5" y="-57" font-family="Liberation Sans,Helvetica,Arial,sans-serif" font-size="10.00" fill="#002b36">(5 values)</text>
</g>
<!-- add&#45;&gt;var_1 -->
<g id="edge5" class="edge">
<title>add&#45;&gt;var_1</title>
<path fill="none" stroke="#002b36" d="M152.43,-285.98C154.19,-272.2 156.59,-253.39 158.55,-238.05"/>
<polygon fill="#002b36" stroke="#002b36" points="162.02,-238.46 159.82,-228.1 155.08,-237.57 162.02,-238.46"/>
<text text-anchor="middle" x="178.5" y="-260" font-family="Liberation Sans,Helvetica,Arial,sans-serif" font-size="10.00" fill="#002b36">output_0</text>
<text text-anchor="middle" x="178.5" y="-249" font-family="Liberation Sans,Helvetica,Arial,sans-serif" font-size="10.00" fill="#002b36">(5 values)</text>
</g>
<!-- inc&#45;&gt;var_0 -->
<g id="edge1" class="edge">
<title>inc&#45;&gt;var_0</title>
<path fill="none" stroke="#002b36" d="M109,-477.98C109,-464.34 109,-445.75 109,-430.5"/>
<polygon fill="#002b36" stroke="#002b36" points="112.5,-430.1 109,-420.1 105.5,-430.1 112.5,-430.1"/>
<text text-anchor="middle" x="130.5" y="-452" font-family="Liberation Sans,Helvetica,Arial,sans-serif" font-size="10.00" fill="#002b36">output_0</text>
<text text-anchor="middle" x="130.5" y="-441" font-family="Liberation Sans,Helvetica,Arial,sans-serif" font-size="10.00" fill="#002b36">(5 values)</text>
</g>
</g>
</svg>
