<?xml version="1.0" encoding="UTF-8" standalone="no"?>
<!DOCTYPE svg PUBLIC "-//W3C//DTD SVG 1.1//EN"
 "http://www.w3.org/Graphics/SVG/1.1/DTD/svg11.dtd">
<!-- Generated by graphviz version 2.50.0 (0)
 -->
<!-- Title: G Pages: 1 -->
<svg width="370pt" height="620pt"
 viewBox="0.00 0.00 369.50 620.00" xmlns="http://www.w3.org/2000/svg" xmlns:xlink="http://www.w3.org/1999/xlink">
<g id="graph0" class="graph" transform="scale(1 1) rotate(0) translate(4 616)">
<title>G</title>
<polygon fill="white" stroke="transparent" points="-4,4 -4,-616 365.5,-616 365.5,4 -4,4"/>
<!-- x -->
<g id="node1" class="node">
<title>x</title>
<path fill="none" stroke="#268bd2" stroke-width="1.5" d="M128.5,-612C128.5,-612 47.5,-612 47.5,-612 41.5,-612 35.5,-606 35.5,-600 35.5,-600 35.5,-588 35.5,-588 35.5,-582 41.5,-576 47.5,-576 47.5,-576 128.5,-576 128.5,-576 134.5,-576 140.5,-582 140.5,-588 140.5,-588 140.5,-600 140.5,-600 140.5,-606 134.5,-612 128.5,-612"/>
<text text-anchor="start" x="84.5" y="-596.4" font-family="Liberation Sans,Helvetica,Arial,sans-serif" font-weight="bold" font-size="12.00" fill="#002b36">x</text>
<text text-anchor="start" x="43.5" y="-586" font-family="Liberation Sans,Helvetica,Arial,sans-serif" font-size="10.00" fill="#268bd2">5 values (5 sources)</text>
</g>
<!-- inc -->
<g id="node11" class="node">
<title>inc</title>
<path fill="none" stroke="#dc322f" stroke-width="1.5" d="M103,-518C103,-518 73,-518 73,-518 67,-518 61,-512 61,-506 61,-506 61,-490 61,-490 61,-484 67,-478 73,-478 73,-478 103,-478 103,-478 109,-478 115,-484 115,-490 115,-490 115,-506 115,-506 115,-512 109,-518 103,-518"/>
<text text-anchor="start" x="79" y="-505.4" font-family="Liberation Sans,Helvetica,Arial,sans-serif" font-weight="bold" font-size="12.00" fill="#002b36">inc</text>
<text text-anchor="start" x="69.5" y="-495" font-family="Liberation Sans,Helvetica,Arial,sans-serif" font-size="10.00" fill="#002b36">@op:inc</text>
<text text-anchor="start" x="73.5" y="-485" font-family="Liberation Sans,Helvetica,Arial,sans-serif" font-size="10.00" fill="#dc322f">5 calls</text>
</g>
<!-- x&#45;&gt;inc -->
<g id="edge9" class="edge">
<title>x&#45;&gt;inc</title>
<path fill="none" stroke="#002b36" d="M88,-575.76C88,-562.5 88,-543.86 88,-528.27"/>
<polygon fill="#002b36" stroke="#002b36" points="91.5,-528.07 88,-518.07 84.5,-528.07 91.5,-528.07"/>
<text text-anchor="middle" x="109.5" y="-550" font-family="Liberation Sans,Helvetica,Arial,sans-serif" font-size="10.00" fill="#002b36">x</text>
<text text-anchor="middle" x="109.5" y="-539" font-family="Liberation Sans,Helvetica,Arial,sans-serif" font-size="10.00" fill="#002b36">(5 values)</text>
</g>
<!-- var_1 -->
<g id="node2" class="node">
<title>var_1</title>
<path fill="none" stroke="#268bd2" stroke-width="1.5" d="M82,-36C82,-36 12,-36 12,-36 6,-36 0,-30 0,-24 0,-24 0,-12 0,-12 0,-6 6,0 12,0 12,0 82,0 82,0 88,0 94,-6 94,-12 94,-12 94,-24 94,-24 94,-30 88,-36 82,-36"/>
<text text-anchor="start" x="31" y="-20.4" font-family="Liberation Sans,Helvetica,Arial,sans-serif" font-weight="bold" font-size="12.00" fill="#002b36">var_1</text>
<text text-anchor="start" x="8" y="-10" font-family="Liberation Sans,Helvetica,Arial,sans-serif" font-size="10.00" fill="#268bd2">5 values (5 sinks)</text>
</g>
<!-- y -->
<g id="node3" class="node">
<title>y</title>
<path fill="none" stroke="#268bd2" stroke-width="1.5" d="M103,-420C103,-420 73,-420 73,-420 67,-420 61,-414 61,-408 61,-408 61,-396 61,-396 61,-390 67,-384 73,-384 73,-384 103,-384 103,-384 109,-384 115,-390 115,-396 115,-396 115,-408 115,-408 115,-414 109,-420 103,-420"/>
<text text-anchor="start" x="84.5" y="-404.4" font-family="Liberation Sans,Helvetica,Arial,sans-serif" font-weight="bold" font-size="12.00" fill="#002b36">y</text>
<text text-anchor="start" x="69.5" y="-394" font-family="Liberation Sans,Helvetica,Arial,sans-serif" font-size="10.00" fill="#268bd2">5 values</text>
</g>
<!-- add -->
<g id="node8" class="node">
<title>add</title>
<path fill="none" stroke="#dc322f" stroke-width="1.5" d="M191,-326C191,-326 159,-326 159,-326 153,-326 147,-320 147,-314 147,-314 147,-298 147,-298 147,-292 153,-286 159,-286 159,-286 191,-286 191,-286 197,-286 203,-292 203,-298 203,-298 203,-314 203,-314 203,-320 197,-326 191,-326"/>
<text text-anchor="start" x="164" y="-313.4" font-family="Liberation Sans,Helvetica,Arial,sans-serif" font-weight="bold" font-size="12.00" fill="#002b36">add</text>
<text text-anchor="start" x="155" y="-303" font-family="Liberation Sans,Helvetica,Arial,sans-serif" font-size="10.00" fill="#002b36">@op:add</text>
<text text-anchor="start" x="160.5" y="-293" font-family="Liberation Sans,Helvetica,Arial,sans-serif" font-size="10.00" fill="#dc322f">5 calls</text>
</g>
<!-- y&#45;&gt;add -->
<g id="edge1" class="edge">
<title>y&#45;&gt;add</title>
<path fill="none" stroke="#002b36" d="M99.86,-383.81C108.27,-372.1 120.13,-356.52 132,-344 135.55,-340.25 139.45,-336.49 143.41,-332.88"/>
<polygon fill="#002b36" stroke="#002b36" points="145.84,-335.4 151.01,-326.15 141.2,-330.16 145.84,-335.4"/>
<text text-anchor="middle" x="153.5" y="-358" font-family="Liberation Sans,Helvetica,Arial,sans-serif" font-size="10.00" fill="#002b36">y</text>
<text text-anchor="middle" x="153.5" y="-347" font-family="Liberation Sans,Helvetica,Arial,sans-serif" font-size="10.00" fill="#002b36">(5 values)</text>
</g>
<!-- divmod_ -->
<g id="node10" class="node">
<title>divmod_</title>
<path fill="none" stroke="#dc322f" stroke-width="1.5" d="M129.5,-134C129.5,-134 76.5,-134 76.5,-134 70.5,-134 64.5,-128 64.5,-122 64.5,-122 64.5,-106 64.5,-106 64.5,-100 70.5,-94 76.5,-94 76.5,-94 129.5,-94 129.5,-94 135.5,-94 141.5,-100 141.5,-106 141.5,-106 141.5,-122 141.5,-122 141.5,-128 135.5,-134 129.5,-134"/>
<text text-anchor="start" x="78" y="-121.4" font-family="Liberation Sans,Helvetica,Arial,sans-serif" font-weight="bold" font-size="12.00" fill="#002b36">divmod_</text>
<text text-anchor="start" x="72.5" y="-111" font-family="Liberation Sans,Helvetica,Arial,sans-serif" font-size="10.00" fill="#002b36">@op:divmod_</text>
<text text-anchor="start" x="88.5" y="-101" font-family="Liberation Sans,Helvetica,Arial,sans-serif" font-size="10.00" fill="#dc322f">5 calls</text>
</g>
<!-- y&#45;&gt;divmod_ -->
<g id="edge2" class="edge">
<title>y&#45;&gt;divmod_</title>
<path fill="none" stroke="#002b36" d="M88.89,-383.97C91.37,-336.76 98.34,-203.82 101.46,-144.37"/>
<polygon fill="#002b36" stroke="#002b36" points="104.97,-144.33 101.99,-134.16 97.98,-143.97 104.97,-144.33"/>
<text text-anchor="middle" x="118.5" y="-260" font-family="Liberation Sans,Helvetica,Arial,sans-serif" font-size="10.00" fill="#002b36">u</text>
<text text-anchor="middle" x="118.5" y="-249" font-family="Liberation Sans,Helvetica,Arial,sans-serif" font-size="10.00" fill="#002b36">(5 values)</text>
</g>
<!-- z -->
<g id="node4" class="node">
<title>z</title>
<path fill="none" stroke="#268bd2" stroke-width="1.5" d="M226.5,-420C226.5,-420 145.5,-420 145.5,-420 139.5,-420 133.5,-414 133.5,-408 133.5,-408 133.5,-396 133.5,-396 133.5,-390 139.5,-384 145.5,-384 145.5,-384 226.5,-384 226.5,-384 232.5,-384 238.5,-390 238.5,-396 238.5,-396 238.5,-408 238.5,-408 238.5,-414 232.5,-420 226.5,-420"/>
<text text-anchor="start" x="182.5" y="-404.4" font-family="Liberation Sans,Helvetica,Arial,sans-serif" font-weight="bold" font-size="12.00" fill="#002b36">z</text>
<text text-anchor="start" x="141.5" y="-394" font-family="Liberation Sans,Helvetica,Arial,sans-serif" font-size="10.00" fill="#268bd2">1 values (1 sources)</text>
</g>
<!-- z&#45;&gt;add -->
<g id="edge3" class="edge">
<title>z&#45;&gt;add</title>
<path fill="none" stroke="#002b36" d="M183.98,-383.76C182.43,-370.5 180.25,-351.86 178.43,-336.27"/>
<polygon fill="#002b36" stroke="#002b36" points="181.87,-335.6 177.23,-326.07 174.92,-336.41 181.87,-335.6"/>
<text text-anchor="middle" x="202.5" y="-358" font-family="Liberation Sans,Helvetica,Arial,sans-serif" font-size="10.00" fill="#002b36">z</text>
<text text-anchor="middle" x="202.5" y="-347" font-family="Liberation Sans,Helvetica,Arial,sans-serif" font-size="10.00" fill="#002b36">(1 values)</text>
</g>
<!-- var_2 -->
<g id="node5" class="node">
<title>var_2</title>
<path fill="none" stroke="#268bd2" stroke-width="1.5" d="M194,-36C194,-36 124,-36 124,-36 118,-36 112,-30 112,-24 112,-24 112,-12 112,-12 112,-6 118,0 124,0 124,0 194,0 194,0 200,0 206,-6 206,-12 206,-12 206,-24 206,-24 206,-30 200,-36 194,-36"/>
<text text-anchor="start" x="143" y="-20.4" font-family="Liberation Sans,Helvetica,Arial,sans-serif" font-weight="bold" font-size="12.00" fill="#002b36">var_2</text>
<text text-anchor="start" x="120" y="-10" font-family="Liberation Sans,Helvetica,Arial,sans-serif" font-size="10.00" fill="#268bd2">5 values (5 sinks)</text>
</g>
<!-- w -->
<g id="node6" class="node">
<title>w</title>
<path fill="none" stroke="#268bd2" stroke-width="1.5" d="M349.5,-420C349.5,-420 268.5,-420 268.5,-420 262.5,-420 256.5,-414 256.5,-408 256.5,-408 256.5,-396 256.5,-396 256.5,-390 262.5,-384 268.5,-384 268.5,-384 349.5,-384 349.5,-384 355.5,-384 361.5,-390 361.5,-396 361.5,-396 361.5,-408 361.5,-408 361.5,-414 355.5,-420 349.5,-420"/>
<text text-anchor="start" x="304" y="-404.4" font-family="Liberation Sans,Helvetica,Arial,sans-serif" font-weight="bold" font-size="12.00" fill="#002b36">w</text>
<text text-anchor="start" x="264.5" y="-394" font-family="Liberation Sans,Helvetica,Arial,sans-serif" font-size="10.00" fill="#268bd2">5 values (5 sources)</text>
</g>
<!-- square -->
<g id="node9" class="node">
<title>square</title>
<path fill="none" stroke="#dc322f" stroke-width="1.5" d="M305,-326C305,-326 259,-326 259,-326 253,-326 247,-320 247,-314 247,-314 247,-298 247,-298 247,-292 253,-286 259,-286 259,-286 305,-286 305,-286 311,-286 317,-292 317,-298 317,-298 317,-314 317,-314 317,-320 311,-326 305,-326"/>
<text text-anchor="start" x="262" y="-313.4" font-family="Liberation Sans,Helvetica,Arial,sans-serif" font-weight="bold" font-size="12.00" fill="#002b36">square</text>
<text text-anchor="start" x="255" y="-303" font-family="Liberation Sans,Helvetica,Arial,sans-serif" font-size="10.00" fill="#002b36">@op:square</text>
<text text-anchor="start" x="267.5" y="-293" font-family="Liberation Sans,Helvetica,Arial,sans-serif" font-size="10.00" fill="#dc322f">5 calls</text>
</g>
<!-- w&#45;&gt;square -->
<g id="edge5" class="edge">
<title>w&#45;&gt;square</title>
<path fill="none" stroke="#002b36" d="M304.05,-383.76C300.2,-370.37 294.78,-351.5 290.28,-335.82"/>
<polygon fill="#002b36" stroke="#002b36" points="293.6,-334.72 287.48,-326.07 286.87,-336.65 293.6,-334.72"/>
<text text-anchor="middle" x="319.5" y="-358" font-family="Liberation Sans,Helvetica,Arial,sans-serif" font-size="10.00" fill="#002b36">w</text>
<text text-anchor="middle" x="319.5" y="-347" font-family="Liberation Sans,Helvetica,Arial,sans-serif" font-size="10.00" fill="#002b36">(5 values)</text>
</g>
<!-- var_0 -->
<g id="node7" class="node">
<title>var_0</title>
<path fill="none" stroke="#268bd2" stroke-width="1.5" d="M212.5,-228C212.5,-228 137.5,-228 137.5,-228 131.5,-228 125.5,-222 125.5,-216 125.5,-216 125.5,-204 125.5,-204 125.5,-198 131.5,-192 137.5,-192 137.5,-192 212.5,-192 212.5,-192 218.5,-192 224.5,-198 224.5,-204 224.5,-204 224.5,-216 224.5,-216 224.5,-222 218.5,-228 212.5,-228"/>
<text text-anchor="start" x="159" y="-212.4" font-family="Liberation Sans,Helvetica,Arial,sans-serif" font-weight="bold" font-size="12.00" fill="#002b36">var_0</text>
<text text-anchor="start" x="133.5" y="-202" font-family="Liberation Sans,Helvetica,Arial,sans-serif" font-size="10.00" fill="#268bd2">10 values (5 sinks)</text>
</g>
<!-- var_0&#45;&gt;divmod_ -->
<g id="edge6" class="edge">
<title>var_0&#45;&gt;divmod_</title>
<path fill="none" stroke="#002b36" d="M161.79,-191.76C151.15,-177.86 135.98,-158.06 123.72,-142.05"/>
<polygon fill="#002b36" stroke="#002b36" points="126.47,-139.88 117.61,-134.07 120.91,-144.14 126.47,-139.88"/>
<text text-anchor="middle" x="168.5" y="-166" font-family="Liberation Sans,Helvetica,Arial,sans-serif" font-size="10.00" fill="#002b36">v</text>
<text text-anchor="middle" x="168.5" y="-155" font-family="Liberation Sans,Helvetica,Arial,sans-serif" font-size="10.00" fill="#002b36">(5 values)</text>
</g>
<!-- add&#45;&gt;var_0 -->
<g id="edge4" class="edge">
<title>add&#45;&gt;var_0</title>
<path fill="none" stroke="#002b36" d="M175,-285.98C175,-272.34 175,-253.75 175,-238.5"/>
<polygon fill="#002b36" stroke="#002b36" points="178.5,-238.1 175,-228.1 171.5,-238.1 178.5,-238.1"/>
<text text-anchor="middle" x="196.5" y="-260" font-family="Liberation Sans,Helvetica,Arial,sans-serif" font-size="10.00" fill="#002b36">output_0</text>
<text text-anchor="middle" x="196.5" y="-249" font-family="Liberation Sans,Helvetica,Arial,sans-serif" font-size="10.00" fill="#002b36">(5 values)</text>
</g>
<!-- square&#45;&gt;var_0 -->
<g id="edge7" class="edge">
<title>square&#45;&gt;var_0</title>
<path fill="none" stroke="#002b36" d="M263.97,-285.98C252.37,-274.07 236.75,-258.64 222,-246 217.45,-242.1 212.5,-238.14 207.58,-234.35"/>
<polygon fill="#002b36" stroke="#002b36" points="209.49,-231.41 199.4,-228.19 205.28,-237 209.49,-231.41"/>
<text text-anchor="middle" x="266.5" y="-260" font-family="Liberation Sans,Helvetica,Arial,sans-serif" font-size="10.00" fill="#002b36">output_0</text>
<text text-anchor="middle" x="266.5" y="-249" font-family="Liberation Sans,Helvetica,Arial,sans-serif" font-size="10.00" fill="#002b36">(5 values)</text>
</g>
<!-- divmod_&#45;&gt;var_1 -->
<g id="edge10" class="edge">
<title>divmod_&#45;&gt;var_1</title>
<path fill="none" stroke="#002b36" d="M91.67,-93.98C83.23,-79.81 71.6,-60.3 62.33,-44.74"/>
<polygon fill="#002b36" stroke="#002b36" points="65.31,-42.9 57.19,-36.1 59.3,-46.48 65.31,-42.9"/>
<text text-anchor="middle" x="102.5" y="-68" font-family="Liberation Sans,Helvetica,Arial,sans-serif" font-size="10.00" fill="#002b36">output_0</text>
<text text-anchor="middle" x="102.5" y="-57" font-family="Liberation Sans,Helvetica,Arial,sans-serif" font-size="10.00" fill="#002b36">(5 values)</text>
</g>
<!-- divmod_&#45;&gt;var_2 -->
<g id="edge11" class="edge">
<title>divmod_&#45;&gt;var_2</title>
<path fill="none" stroke="#002b36" d="M116.59,-93.64C120.4,-88.02 124.46,-81.83 128,-76 134.03,-66.08 140.23,-54.91 145.48,-45.1"/>
<polygon fill="#002b36" stroke="#002b36" points="148.61,-46.68 150.2,-36.2 142.42,-43.4 148.61,-46.68"/>
<text text-anchor="middle" x="162.5" y="-68" font-family="Liberation Sans,Helvetica,Arial,sans-serif" font-size="10.00" fill="#002b36">output_1</text>
<text text-anchor="middle" x="162.5" y="-57" font-family="Liberation Sans,Helvetica,Arial,sans-serif" font-size="10.00" fill="#002b36">(5 values)</text>
</g>
<!-- inc&#45;&gt;y -->
<g id="edge8" class="edge">
<title>inc&#45;&gt;y</title>
<path fill="none" stroke="#002b36" d="M88,-477.98C88,-464.34 88,-445.75 88,-430.5"/>
<polygon fill="#002b36" stroke="#002b36" points="91.5,-430.1 88,-420.1 84.5,-430.1 91.5,-430.1"/>
<text text-anchor="middle" x="109.5" y="-452" font-family="Liberation Sans,Helvetica,Arial,sans-serif" font-size="10.00" fill="#002b36">output_0</text>
<text text-anchor="middle" x="109.5" y="-441" font-family="Liberation Sans,Helvetica,Arial,sans-serif" font-size="10.00" fill="#002b36">(5 values)</text>
</g>
</g>
</svg>
