<?xml version="1.0" encoding="UTF-8" standalone="no"?>
<!DOCTYPE svg PUBLIC "-//W3C//DTD SVG 1.1//EN"
 "http://www.w3.org/Graphics/SVG/1.1/DTD/svg11.dtd">
<!-- Generated by graphviz version 2.50.0 (0)
 -->
<!-- Title: G Pages: 1 -->
<svg width="236pt" height="236pt"
 viewBox="0.00 0.00 236.00 236.00" xmlns="http://www.w3.org/2000/svg" xmlns:xlink="http://www.w3.org/1999/xlink">
<g id="graph0" class="graph" transform="scale(1 1) rotate(0) translate(4 232)">
<title>G</title>
<polygon fill="white" stroke="transparent" points="-4,4 -4,-232 232,-232 232,4 -4,4"/>
<!-- var_0 -->
<g id="node1" class="node">
<title>var_0</title>
<path fill="none" stroke="#268bd2" stroke-width="1.5" d="M148.5,-36C148.5,-36 78.5,-36 78.5,-36 72.5,-36 66.5,-30 66.5,-24 66.5,-24 66.5,-12 66.5,-12 66.5,-6 72.5,0 78.5,0 78.5,0 148.5,0 148.5,0 154.5,0 160.5,-6 160.5,-12 160.5,-12 160.5,-24 160.5,-24 160.5,-30 154.5,-36 148.5,-36"/>
<text text-anchor="start" x="97.5" y="-20.4" font-family="Liberation Sans,Helvetica,Arial,sans-serif" font-weight="bold" font-size="12.00" fill="#002b36">var_0</text>
<text text-anchor="start" x="74.5" y="-10" font-family="Liberation Sans,Helvetica,Arial,sans-serif" font-size="10.00" fill="#268bd2">2 values (2 sinks)</text>
</g>
<!-- hash_id -->
<g id="node2" class="node">
<title>hash_id</title>
<path fill="none" stroke="#268bd2" stroke-width="1.5" d="M93,-228C93,-228 12,-228 12,-228 6,-228 0,-222 0,-216 0,-216 0,-204 0,-204 0,-198 6,-192 12,-192 12,-192 93,-192 93,-192 99,-192 105,-198 105,-204 105,-204 105,-216 105,-216 105,-222 99,-228 93,-228"/>
<text text-anchor="start" x="29.5" y="-212.4" font-family="Liberation Sans,Helvetica,Arial,sans-serif" font-weight="bold" font-size="12.00" fill="#002b36">hash_id</text>
<text text-anchor="start" x="8" y="-202" font-family="Liberation Sans,Helvetica,Arial,sans-serif" font-size="10.00" fill="#268bd2">2 values (2 sources)</text>
</g>
<!-- hash_compute -->
<g id="node4" class="node">
<title>hash_compute</title>
<path fill="none" stroke="#dc322f" stroke-width="1.5" d="M153.5,-134C153.5,-134 73.5,-134 73.5,-134 67.5,-134 61.5,-128 61.5,-122 61.5,-122 61.5,-106 61.5,-106 61.5,-100 67.5,-94 73.5,-94 73.5,-94 153.5,-94 153.5,-94 159.5,-94 165.5,-100 165.5,-106 165.5,-106 165.5,-122 165.5,-122 165.5,-128 159.5,-134 153.5,-134"/>
<text text-anchor="start" x="70.5" y="-121.4" font-family="Liberation Sans,Helvetica,Arial,sans-serif" font-weight="bold" font-size="12.00" fill="#002b36">hash_compute</text>
<text text-anchor="start" x="69.5" y="-111" font-family="Liberation Sans,Helvetica,Arial,sans-serif" font-size="10.00" fill="#002b36">@op:hash_compute</text>
<text text-anchor="start" x="99" y="-101" font-family="Liberation Sans,Helvetica,Arial,sans-serif" font-size="10.00" fill="#dc322f">2 calls</text>
</g>
<!-- hash_id&#45;&gt;hash_compute -->
<g id="edge3" class="edge">
<title>hash_id&#45;&gt;hash_compute</title>
<path fill="none" stroke="#002b36" d="M63.69,-191.76C72.63,-177.99 85.32,-158.42 95.66,-142.49"/>
<polygon fill="#002b36" stroke="#002b36" points="98.62,-144.37 101.12,-134.07 92.74,-140.56 98.62,-144.37"/>
<text text-anchor="middle" x="110" y="-166" font-family="Liberation Sans,Helvetica,Arial,sans-serif" font-size="10.00" fill="#002b36">hash_id</text>
<text text-anchor="middle" x="110" y="-155" font-family="Liberation Sans,Helvetica,Arial,sans-serif" font-size="10.00" fill="#002b36">(2 values)</text>
</g>
<!-- data -->
<g id="node3" class="node">
<title>data</title>
<path fill="none" stroke="#268bd2" stroke-width="1.5" d="M216,-228C216,-228 135,-228 135,-228 129,-228 123,-222 123,-216 123,-216 123,-204 123,-204 123,-198 129,-192 135,-192 135,-192 216,-192 216,-192 222,-192 228,-198 228,-204 228,-204 228,-216 228,-216 228,-222 222,-228 216,-228"/>
<text text-anchor="start" x="163" y="-212.4" font-family="Liberation Sans,Helvetica,Arial,sans-serif" font-weight="bold" font-size="12.00" fill="#002b36">data</text>
<text text-anchor="start" x="131" y="-202" font-family="Liberation Sans,Helvetica,Arial,sans-serif" font-size="10.00" fill="#268bd2">1 values (1 sources)</text>
</g>
<!-- data&#45;&gt;hash_compute -->
<g id="edge2" class="edge">
<title>data&#45;&gt;hash_compute</title>
<path fill="none" stroke="#002b36" d="M164.13,-191.76C155.04,-177.99 142.14,-158.42 131.63,-142.49"/>
<polygon fill="#002b36" stroke="#002b36" points="134.51,-140.49 126.08,-134.07 128.66,-144.35 134.51,-140.49"/>
<text text-anchor="middle" x="173" y="-166" font-family="Liberation Sans,Helvetica,Arial,sans-serif" font-size="10.00" fill="#002b36">data</text>
<text text-anchor="middle" x="173" y="-155" font-family="Liberation Sans,Helvetica,Arial,sans-serif" font-size="10.00" fill="#002b36">(1 values)</text>
</g>
<!-- hash_compute&#45;&gt;var_0 -->
<g id="edge1" class="edge">
<title>hash_compute&#45;&gt;var_0</title>
<path fill="none" stroke="#002b36" d="M113.5,-93.98C113.5,-80.34 113.5,-61.75 113.5,-46.5"/>
<polygon fill="#002b36" stroke="#002b36" points="117,-46.1 113.5,-36.1 110,-46.1 117,-46.1"/>
<text text-anchor="middle" x="135" y="-68" font-family="Liberation Sans,Helvetica,Arial,sans-serif" font-size="10.00" fill="#002b36">output_0</text>
<text text-anchor="middle" x="135" y="-57" font-family="Liberation Sans,Helvetica,Arial,sans-serif" font-size="10.00" fill="#002b36">(2 values)</text>
</g>
</g>
</svg>
