<?xml version="1.0" encoding="UTF-8" standalone="no"?>
<!DOCTYPE svg PUBLIC "-//W3C//DTD SVG 1.1//EN"
 "http://www.w3.org/Graphics/SVG/1.1/DTD/svg11.dtd">
<!-- Generated by graphviz version 2.50.0 (0)
 -->
<!-- Title: G Pages: 1 -->
<svg width="270pt" height="428pt"
 viewBox="0.00 0.00 270.00 428.00" xmlns="http://www.w3.org/2000/svg" xmlns:xlink="http://www.w3.org/1999/xlink">
<g id="graph0" class="graph" transform="scale(1 1) rotate(0) translate(4 424)">
<title>G</title>
<polygon fill="white" stroke="transparent" points="-4,4 -4,-424 266,-424 266,4 -4,4"/>
<!-- mode -->
<g id="node1" class="node">
<title>mode</title>
<path fill="none" stroke="#268bd2" stroke-width="1.5" d="M93,-420C93,-420 12,-420 12,-420 6,-420 0,-414 0,-408 0,-408 0,-396 0,-396 0,-390 6,-384 12,-384 12,-384 93,-384 93,-384 99,-384 105,-390 105,-396 105,-396 105,-408 105,-408 105,-414 99,-420 93,-420"/>
<text text-anchor="start" x="36" y="-404.4" font-family="Liberation Sans,Helvetica,Arial,sans-serif" font-weight="bold" font-size="12.00" fill="#002b36">mode</text>
<text text-anchor="start" x="8" y="-394" font-family="Liberation Sans,Helvetica,Arial,sans-serif" font-size="10.00" fill="#268bd2">3 values (3 sources)</text>
</g>
<!-- compute_v2 -->
<g id="node6" class="node">
<title>compute_v2</title>
<path fill="none" stroke="#dc322f" stroke-width="1.5" d="M186.5,-326C186.5,-326 116.5,-326 116.5,-326 110.5,-326 104.5,-320 104.5,-314 104.5,-314 104.5,-298 104.5,-298 104.5,-292 110.5,-286 116.5,-286 116.5,-286 186.5,-286 186.5,-286 192.5,-286 198.5,-292 198.5,-298 198.5,-298 198.5,-314 198.5,-314 198.5,-320 192.5,-326 186.5,-326"/>
<text text-anchor="start" x="116" y="-313.4" font-family="Liberation Sans,Helvetica,Arial,sans-serif" font-weight="bold" font-size="12.00" fill="#002b36">compute_v2</text>
<text text-anchor="start" x="112.5" y="-303" font-family="Liberation Sans,Helvetica,Arial,sans-serif" font-size="10.00" fill="#002b36">@op:compute_v2</text>
<text text-anchor="start" x="137" y="-293" font-family="Liberation Sans,Helvetica,Arial,sans-serif" font-size="10.00" fill="#dc322f">1 calls</text>
</g>
<!-- mode&#45;&gt;compute_v2 -->
<g id="edge5" class="edge">
<title>mode&#45;&gt;compute_v2</title>
<path fill="none" stroke="#002b36" d="M70.66,-383.76C85.57,-369.6 106.92,-349.33 123.94,-333.17"/>
<polygon fill="#002b36" stroke="#002b36" points="126.57,-335.5 131.41,-326.07 121.75,-330.42 126.57,-335.5"/>
<text text-anchor="middle" x="133" y="-358" font-family="Liberation Sans,Helvetica,Arial,sans-serif" font-size="10.00" fill="#002b36">mode</text>
<text text-anchor="middle" x="133" y="-347" font-family="Liberation Sans,Helvetica,Arial,sans-serif" font-size="10.00" fill="#002b36">(1 values)</text>
</g>
<!-- compute -->
<g id="node7" class="node">
<title>compute</title>
<path fill="none" stroke="#dc322f" stroke-width="1.5" d="M112.5,-134C112.5,-134 58.5,-134 58.5,-134 52.5,-134 46.5,-128 46.5,-122 46.5,-122 46.5,-106 46.5,-106 46.5,-100 52.5,-94 58.5,-94 58.5,-94 112.5,-94 112.5,-94 118.5,-94 124.5,-100 124.5,-106 124.5,-106 124.5,-122 124.5,-122 124.5,-128 118.5,-134 112.5,-134"/>
<text text-anchor="start" x="60" y="-121.4" font-family="Liberation Sans,Helvetica,Arial,sans-serif" font-weight="bold" font-size="12.00" fill="#002b36">compute</text>
<text text-anchor="start" x="54.5" y="-111" font-family="Liberation Sans,Helvetica,Arial,sans-serif" font-size="10.00" fill="#002b36">@op:compute</text>
<text text-anchor="start" x="71" y="-101" font-family="Liberation Sans,Helvetica,Arial,sans-serif" font-size="10.00" fill="#dc322f">3 calls</text>
</g>
<!-- mode&#45;&gt;compute -->
<g id="edge6" class="edge">
<title>mode&#45;&gt;compute</title>
<path fill="none" stroke="#002b36" d="M53.3,-383.98C55.39,-343.53 61.89,-238.5 76.5,-152 76.95,-149.34 77.48,-146.59 78.06,-143.85"/>
<polygon fill="#002b36" stroke="#002b36" points="81.48,-144.63 80.31,-134.1 74.65,-143.06 81.48,-144.63"/>
<text text-anchor="middle" x="86" y="-260" font-family="Liberation Sans,Helvetica,Arial,sans-serif" font-size="10.00" fill="#002b36">mode</text>
<text text-anchor="middle" x="86" y="-249" font-family="Liberation Sans,Helvetica,Arial,sans-serif" font-size="10.00" fill="#002b36">(3 values)</text>
</g>
<!-- var_0 -->
<g id="node2" class="node">
<title>var_0</title>
<path fill="none" stroke="#268bd2" stroke-width="1.5" d="M186.5,-36C186.5,-36 116.5,-36 116.5,-36 110.5,-36 104.5,-30 104.5,-24 104.5,-24 104.5,-12 104.5,-12 104.5,-6 110.5,0 116.5,0 116.5,0 186.5,0 186.5,0 192.5,0 198.5,-6 198.5,-12 198.5,-12 198.5,-24 198.5,-24 198.5,-30 192.5,-36 186.5,-36"/>
<text text-anchor="start" x="135.5" y="-20.4" font-family="Liberation Sans,Helvetica,Arial,sans-serif" font-weight="bold" font-size="12.00" fill="#002b36">var_0</text>
<text text-anchor="start" x="112.5" y="-10" font-family="Liberation Sans,Helvetica,Arial,sans-serif" font-size="10.00" fill="#268bd2">7 values (4 sinks)</text>
</g>
<!-- summarize -->
<g id="node5" class="node">
<title>summarize</title>
<path fill="none" stroke="#dc322f" stroke-width="1.5" d="M250,-134C250,-134 185,-134 185,-134 179,-134 173,-128 173,-122 173,-122 173,-106 173,-106 173,-100 179,-94 185,-94 185,-94 250,-94 250,-94 256,-94 262,-100 262,-106 262,-106 262,-122 262,-122 262,-128 256,-134 250,-134"/>
<text text-anchor="start" x="186" y="-121.4" font-family="Liberation Sans,Helvetica,Arial,sans-serif" font-weight="bold" font-size="12.00" fill="#002b36">summarize</text>
<text text-anchor="start" x="181" y="-111" font-family="Liberation Sans,Helvetica,Arial,sans-serif" font-size="10.00" fill="#002b36">@op:summarize</text>
<text text-anchor="start" x="203" y="-101" font-family="Liberation Sans,Helvetica,Arial,sans-serif" font-size="10.00" fill="#dc322f">4 calls</text>
</g>
<!-- var_0&#45;&gt;summarize -->
<g id="edge7" class="edge">
<title>var_0&#45;&gt;summarize</title>
<path fill="none" stroke="#002b36" d="M145.82,-36.17C142.94,-48.16 141.38,-64.1 148.5,-76 152.39,-82.5 157.85,-87.92 164.01,-92.42"/>
<polygon fill="#002b36" stroke="#002b36" points="162.47,-95.58 172.78,-98.01 166.23,-89.68 162.47,-95.58"/>
<text text-anchor="middle" x="170" y="-68" font-family="Liberation Sans,Helvetica,Arial,sans-serif" font-size="10.00" fill="#002b36">data</text>
<text text-anchor="middle" x="170" y="-57" font-family="Liberation Sans,Helvetica,Arial,sans-serif" font-size="10.00" fill="#002b36">(3 values)</text>
</g>
<!-- version -->
<g id="node3" class="node">
<title>version</title>
<path fill="none" stroke="#268bd2" stroke-width="1.5" d="M216,-420C216,-420 135,-420 135,-420 129,-420 123,-414 123,-408 123,-408 123,-396 123,-396 123,-390 129,-384 135,-384 135,-384 216,-384 216,-384 222,-384 228,-390 228,-396 228,-396 228,-408 228,-408 228,-414 222,-420 216,-420"/>
<text text-anchor="start" x="154" y="-404.4" font-family="Liberation Sans,Helvetica,Arial,sans-serif" font-weight="bold" font-size="12.00" fill="#002b36">version</text>
<text text-anchor="start" x="131" y="-394" font-family="Liberation Sans,Helvetica,Arial,sans-serif" font-size="10.00" fill="#268bd2">1 values (1 sources)</text>
</g>
<!-- version&#45;&gt;compute_v2 -->
<g id="edge11" class="edge">
<title>version&#45;&gt;compute_v2</title>
<path fill="none" stroke="#002b36" d="M171.1,-383.76C167.68,-370.37 162.86,-351.5 158.86,-335.82"/>
<polygon fill="#002b36" stroke="#002b36" points="162.23,-334.9 156.37,-326.07 155.45,-336.63 162.23,-334.9"/>
<text text-anchor="middle" x="187" y="-358" font-family="Liberation Sans,Helvetica,Arial,sans-serif" font-size="10.00" fill="#002b36">version</text>
<text text-anchor="middle" x="187" y="-347" font-family="Liberation Sans,Helvetica,Arial,sans-serif" font-size="10.00" fill="#002b36">(1 values)</text>
</g>
<!-- data -->
<g id="node4" class="node">
<title>data</title>
<path fill="none" stroke="#268bd2" stroke-width="1.5" d="M192,-228C192,-228 111,-228 111,-228 105,-228 99,-222 99,-216 99,-216 99,-204 99,-204 99,-198 105,-192 111,-192 111,-192 192,-192 192,-192 198,-192 204,-198 204,-204 204,-204 204,-216 204,-216 204,-222 198,-228 192,-228"/>
<text text-anchor="start" x="139" y="-212.4" font-family="Liberation Sans,Helvetica,Arial,sans-serif" font-weight="bold" font-size="12.00" fill="#002b36">data</text>
<text text-anchor="start" x="107" y="-202" font-family="Liberation Sans,Helvetica,Arial,sans-serif" font-size="10.00" fill="#268bd2">7 values (3 sources)</text>
</g>
<!-- data&#45;&gt;summarize -->
<g id="edge2" class="edge">
<title>data&#45;&gt;summarize</title>
<path fill="none" stroke="#002b36" d="M177.87,-191.82C184.29,-186.68 190.68,-180.64 195.5,-174 202,-165.04 206.8,-153.94 210.23,-143.79"/>
<polygon fill="#002b36" stroke="#002b36" points="213.62,-144.66 213.21,-134.08 206.93,-142.61 213.62,-144.66"/>
<text text-anchor="middle" x="228" y="-166" font-family="Liberation Sans,Helvetica,Arial,sans-serif" font-size="10.00" fill="#002b36">data</text>
<text text-anchor="middle" x="228" y="-155" font-family="Liberation Sans,Helvetica,Arial,sans-serif" font-size="10.00" fill="#002b36">(4 values)</text>
</g>
<!-- data&#45;&gt;compute_v2 -->
<g id="edge3" class="edge">
<title>data&#45;&gt;compute_v2</title>
<path fill="none" stroke="#002b36" d="M141.82,-228.29C139.24,-233.78 136.81,-239.99 135.5,-246 133.42,-255.55 133.52,-258.43 135.5,-268 136.09,-270.83 136.9,-273.7 137.85,-276.54"/>
<polygon fill="#002b36" stroke="#002b36" points="134.6,-277.85 141.48,-285.9 141.13,-275.31 134.6,-277.85"/>
<text text-anchor="middle" x="157" y="-260" font-family="Liberation Sans,Helvetica,Arial,sans-serif" font-size="10.00" fill="#002b36">data</text>
<text text-anchor="middle" x="157" y="-249" font-family="Liberation Sans,Helvetica,Arial,sans-serif" font-size="10.00" fill="#002b36">(1 values)</text>
</g>
<!-- data&#45;&gt;compute -->
<g id="edge4" class="edge">
<title>data&#45;&gt;compute</title>
<path fill="none" stroke="#002b36" d="M104.83,-191.93C97.55,-187.23 90.97,-181.33 86.5,-174 81.16,-165.23 79.85,-154.29 80.23,-144.22"/>
<polygon fill="#002b36" stroke="#002b36" points="83.72,-144.44 81.14,-134.17 76.75,-143.81 83.72,-144.44"/>
<text text-anchor="middle" x="108" y="-166" font-family="Liberation Sans,Helvetica,Arial,sans-serif" font-size="10.00" fill="#002b36">data</text>
<text text-anchor="middle" x="108" y="-155" font-family="Liberation Sans,Helvetica,Arial,sans-serif" font-size="10.00" fill="#002b36">(3 values)</text>
</g>
<!-- summarize&#45;&gt;var_0 -->
<g id="edge1" class="edge">
<title>summarize&#45;&gt;var_0</title>
<path fill="none" stroke="#002b36" d="M213.21,-93.92C209.81,-81.7 204.17,-65.94 195.5,-54 192.64,-50.06 189.22,-46.33 185.58,-42.87"/>
<polygon fill="#002b36" stroke="#002b36" points="187.72,-40.09 177.87,-36.18 183.13,-45.38 187.72,-40.09"/>
<text text-anchor="middle" x="228" y="-68" font-family="Liberation Sans,Helvetica,Arial,sans-serif" font-size="10.00" fill="#002b36">output_0</text>
<text text-anchor="middle" x="228" y="-57" font-family="Liberation Sans,Helvetica,Arial,sans-serif" font-size="10.00" fill="#002b36">(4 values)</text>
</g>
<!-- compute_v2&#45;&gt;data -->
<g id="edge10" class="edge">
<title>compute_v2&#45;&gt;data</title>
<path fill="none" stroke="#002b36" d="M168.88,-285.94C172.81,-280.52 176.43,-274.35 178.5,-268 181.53,-258.7 181.65,-255.25 178.5,-246 177.41,-242.8 175.9,-239.67 174.14,-236.68"/>
<polygon fill="#002b36" stroke="#002b36" points="176.85,-234.44 168.31,-228.18 171.08,-238.4 176.85,-234.44"/>
<text text-anchor="middle" x="202" y="-260" font-family="Liberation Sans,Helvetica,Arial,sans-serif" font-size="10.00" fill="#002b36">output_0</text>
<text text-anchor="middle" x="202" y="-249" font-family="Liberation Sans,Helvetica,Arial,sans-serif" font-size="10.00" fill="#002b36">(1 values)</text>
</g>
<!-- compute&#45;&gt;var_0 -->
<g id="edge8" class="edge">
<title>compute&#45;&gt;var_0</title>
<path fill="none" stroke="#002b36" d="M85.27,-93.73C86,-81.43 88.63,-65.66 96.5,-54 99.43,-49.66 103.11,-45.74 107.16,-42.24"/>
<polygon fill="#002b36" stroke="#002b36" points="109.49,-44.86 115.31,-36.01 105.24,-39.3 109.49,-44.86"/>
<text text-anchor="middle" x="118" y="-68" font-family="Liberation Sans,Helvetica,Arial,sans-serif" font-size="10.00" fill="#002b36">output_0</text>
<text text-anchor="middle" x="118" y="-57" font-family="Liberation Sans,Helvetica,Arial,sans-serif" font-size="10.00" fill="#002b36">(3 values)</text>
</g>
<!-- compute&#45;&gt;data -->
<g id="edge9" class="edge">
<title>compute&#45;&gt;data</title>
<path fill="none" stroke="#002b36" d="M112.72,-134.2C118.82,-139.45 124.86,-145.5 129.5,-152 135.97,-161.06 140.83,-172.28 144.32,-182.36"/>
<polygon fill="#002b36" stroke="#002b36" points="141,-183.47 147.36,-191.94 147.67,-181.35 141,-183.47"/>
<text text-anchor="middle" x="163" y="-166" font-family="Liberation Sans,Helvetica,Arial,sans-serif" font-size="10.00" fill="#002b36">output_0</text>
<text text-anchor="middle" x="163" y="-155" font-family="Liberation Sans,Helvetica,Arial,sans-serif" font-size="10.00" fill="#002b36">(3 values)</text>
</g>
</g>
</svg>
