<?xml version="1.0" encoding="UTF-8" standalone="no"?>
<!DOCTYPE svg PUBLIC "-//W3C//DTD SVG 1.1//EN"
 "http://www.w3.org/Graphics/SVG/1.1/DTD/svg11.dtd">
<!-- Generated by graphviz version 2.50.0 (0)
 -->
<!-- Title: G Pages: 1 -->
<svg width="383pt" height="236pt"
 viewBox="0.00 0.00 383.00 236.00" xmlns="http://www.w3.org/2000/svg" xmlns:xlink="http://www.w3.org/1999/xlink">
<g id="graph0" class="graph" transform="scale(1 1) rotate(0) translate(4 232)">
<title>G</title>
<polygon fill="white" stroke="transparent" points="-4,4 -4,-232 379,-232 379,4 -4,4"/>
<!-- branch -->
<g id="node1" class="node">
<title>branch</title>
<path fill="none" stroke="#268bd2" stroke-width="1.5" d="M93,-228C93,-228 12,-228 12,-228 6,-228 0,-222 0,-216 0,-216 0,-204 0,-204 0,-198 6,-192 12,-192 12,-192 93,-192 93,-192 99,-192 105,-198 105,-204 105,-204 105,-216 105,-216 105,-222 99,-228 93,-228"/>
<text text-anchor="start" x="32" y="-212.4" font-family="Liberation Sans,Helvetica,Arial,sans-serif" font-weight="bold" font-size="12.00" fill="#002b36">branch</text>
<text text-anchor="start" x="8" y="-202" font-family="Liberation Sans,Helvetica,Arial,sans-serif" font-size="10.00" fill="#268bd2">3 values (3 sources)</text>
</g>
<!-- branching_computation -->
<g id="node5" class="node">
<title>branching_computation</title>
<path fill="none" stroke="#dc322f" stroke-width="1.5" d="M252.5,-134C252.5,-134 122.5,-134 122.5,-134 116.5,-134 110.5,-128 110.5,-122 110.5,-122 110.5,-106 110.5,-106 110.5,-100 116.5,-94 122.5,-94 122.5,-94 252.5,-94 252.5,-94 258.5,-94 264.5,-100 264.5,-106 264.5,-106 264.5,-122 264.5,-122 264.5,-128 258.5,-134 252.5,-134"/>
<text text-anchor="start" x="118.5" y="-121.4" font-family="Liberation Sans,Helvetica,Arial,sans-serif" font-weight="bold" font-size="12.00" fill="#002b36">branching_computation</text>
<text text-anchor="start" x="125" y="-111" font-family="Liberation Sans,Helvetica,Arial,sans-serif" font-size="10.00" fill="#002b36">@op:branching_computation</text>
<text text-anchor="start" x="173" y="-101" font-family="Liberation Sans,Helvetica,Arial,sans-serif" font-size="10.00" fill="#dc322f">9 calls</text>
</g>
<!-- branch&#45;&gt;branching_computation -->
<g id="edge2" class="edge">
<title>branch&#45;&gt;branching_computation</title>
<path fill="none" stroke="#002b36" d="M76.95,-191.98C97.79,-177.46 128.03,-156.41 151.62,-139.98"/>
<polygon fill="#002b36" stroke="#002b36" points="153.77,-142.75 159.98,-134.16 149.77,-137 153.77,-142.75"/>
<text text-anchor="middle" x="154" y="-166" font-family="Liberation Sans,Helvetica,Arial,sans-serif" font-size="10.00" fill="#002b36">branch</text>
<text text-anchor="middle" x="154" y="-155" font-family="Liberation Sans,Helvetica,Arial,sans-serif" font-size="10.00" fill="#002b36">(3 values)</text>
</g>
<!-- enhancement_level -->
<g id="node2" class="node">
<title>enhancement_level</title>
<path fill="none" stroke="#268bd2" stroke-width="1.5" d="M239.5,-228C239.5,-228 135.5,-228 135.5,-228 129.5,-228 123.5,-222 123.5,-216 123.5,-216 123.5,-204 123.5,-204 123.5,-198 129.5,-192 135.5,-192 135.5,-192 239.5,-192 239.5,-192 245.5,-192 251.5,-198 251.5,-204 251.5,-204 251.5,-216 251.5,-216 251.5,-222 245.5,-228 239.5,-228"/>
<text text-anchor="start" x="131.5" y="-212.4" font-family="Liberation Sans,Helvetica,Arial,sans-serif" font-weight="bold" font-size="12.00" fill="#002b36">enhancement_level</text>
<text text-anchor="start" x="143" y="-202" font-family="Liberation Sans,Helvetica,Arial,sans-serif" font-size="10.00" fill="#268bd2">3 values (3 sources)</text>
</g>
<!-- enhancement_level&#45;&gt;branching_computation -->
<g id="edge4" class="edge">
<title>enhancement_level&#45;&gt;branching_computation</title>
<path fill="none" stroke="#002b36" d="M187.5,-191.76C187.5,-178.5 187.5,-159.86 187.5,-144.27"/>
<polygon fill="#002b36" stroke="#002b36" points="191,-144.07 187.5,-134.07 184,-144.07 191,-144.07"/>
<text text-anchor="middle" x="230" y="-166" font-family="Liberation Sans,Helvetica,Arial,sans-serif" font-size="10.00" fill="#002b36">enhancement_level</text>
<text text-anchor="middle" x="230" y="-155" font-family="Liberation Sans,Helvetica,Arial,sans-serif" font-size="10.00" fill="#002b36">(3 values)</text>
</g>
<!-- var_0 -->
<g id="node3" class="node">
<title>var_0</title>
<path fill="none" stroke="#268bd2" stroke-width="1.5" d="M222.5,-36C222.5,-36 152.5,-36 152.5,-36 146.5,-36 140.5,-30 140.5,-24 140.5,-24 140.5,-12 140.5,-12 140.5,-6 146.5,0 152.5,0 152.5,0 222.5,0 222.5,0 228.5,0 234.5,-6 234.5,-12 234.5,-12 234.5,-24 234.5,-24 234.5,-30 228.5,-36 222.5,-36"/>
<text text-anchor="start" x="171.5" y="-20.4" font-family="Liberation Sans,Helvetica,Arial,sans-serif" font-weight="bold" font-size="12.00" fill="#002b36">var_0</text>
<text text-anchor="start" x="148.5" y="-10" font-family="Liberation Sans,Helvetica,Arial,sans-serif" font-size="10.00" fill="#268bd2">9 values (9 sinks)</text>
</g>
<!-- data -->
<g id="node4" class="node">
<title>data</title>
<path fill="none" stroke="#268bd2" stroke-width="1.5" d="M363,-228C363,-228 282,-228 282,-228 276,-228 270,-222 270,-216 270,-216 270,-204 270,-204 270,-198 276,-192 282,-192 282,-192 363,-192 363,-192 369,-192 375,-198 375,-204 375,-204 375,-216 375,-216 375,-222 369,-228 363,-228"/>
<text text-anchor="start" x="310" y="-212.4" font-family="Liberation Sans,Helvetica,Arial,sans-serif" font-weight="bold" font-size="12.00" fill="#002b36">data</text>
<text text-anchor="start" x="278" y="-202" font-family="Liberation Sans,Helvetica,Arial,sans-serif" font-size="10.00" fill="#268bd2">1 values (1 sources)</text>
</g>
<!-- data&#45;&gt;branching_computation -->
<g id="edge3" class="edge">
<title>data&#45;&gt;branching_computation</title>
<path fill="none" stroke="#002b36" d="M312.03,-191.86C303.7,-179.41 291.05,-162.9 276.5,-152 269.76,-146.95 262.23,-142.46 254.49,-138.5"/>
<polygon fill="#002b36" stroke="#002b36" points="255.86,-135.27 245.33,-134.09 252.82,-141.58 255.86,-135.27"/>
<text text-anchor="middle" x="319" y="-166" font-family="Liberation Sans,Helvetica,Arial,sans-serif" font-size="10.00" fill="#002b36">data</text>
<text text-anchor="middle" x="319" y="-155" font-family="Liberation Sans,Helvetica,Arial,sans-serif" font-size="10.00" fill="#002b36">(1 values)</text>
</g>
<!-- branching_computation&#45;&gt;var_0 -->
<g id="edge1" class="edge">
<title>branching_computation&#45;&gt;var_0</title>
<path fill="none" stroke="#002b36" d="M187.5,-93.98C187.5,-80.34 187.5,-61.75 187.5,-46.5"/>
<polygon fill="#002b36" stroke="#002b36" points="191,-46.1 187.5,-36.1 184,-46.1 191,-46.1"/>
<text text-anchor="middle" x="209" y="-68" font-family="Liberation Sans,Helvetica,Arial,sans-serif" font-size="10.00" fill="#002b36">output_0</text>
<text text-anchor="middle" x="209" y="-57" font-family="Liberation Sans,Helvetica,Arial,sans-serif" font-size="10.00" fill="#002b36">(9 values)</text>
</g>
</g>
</svg>
