<?xml version="1.0" encoding="UTF-8" standalone="no"?>
<!DOCTYPE svg PUBLIC "-//W3C//DTD SVG 1.1//EN"
 "http://www.w3.org/Graphics/SVG/1.1/DTD/svg11.dtd">
<!-- Generated by graphviz version 2.50.0 (0)
 -->
<!-- Pages: 1 -->
<svg width="11121pt" height="116pt"
 viewBox="0.00 0.00 11120.77 116.00" xmlns="http://www.w3.org/2000/svg" xmlns:xlink="http://www.w3.org/1999/xlink">
<g id="graph0" class="graph" transform="scale(1 1) rotate(0) translate(4 112)">
<polygon fill="white" stroke="transparent" points="-4,4 -4,-112 11116.77,-112 11116.77,4 -4,4"/>
<!-- var_0 -->
<g id="node1" class="node">
<title>var_0</title>
<ellipse fill="none" stroke="black" cx="1554.59" cy="-18" rx="30.59" ry="18"/>
<text text-anchor="middle" x="1554.59" y="-14.3" font-family="Times New Roman,serif" font-size="14.00">var_0</text>
</g>
<!-- w -->
<g id="node2" class="node">
<title>w</title>
<ellipse fill="none" stroke="black" cx="3874.59" cy="-18" rx="27" ry="18"/>
<text text-anchor="middle" x="3874.59" y="-14.3" font-family="Times New Roman,serif" font-size="14.00">w</text>
</g>
<!-- z -->
<g id="node3" class="node">
<title>z</title>
<ellipse fill="none" stroke="black" cx="4800.59" cy="-18" rx="27" ry="18"/>
<text text-anchor="middle" x="4800.59" y="-14.3" font-family="Times New Roman,serif" font-size="14.00">z</text>
</g>
<!-- y -->
<g id="node4" class="node">
<title>y</title>
<ellipse fill="none" stroke="black" cx="5724.59" cy="-18" rx="27" ry="18"/>
<text text-anchor="middle" x="5724.59" y="-14.3" font-family="Times New Roman,serif" font-size="14.00">y</text>
</g>
<!-- x -->
<g id="node5" class="node">
<title>x</title>
<ellipse fill="none" stroke="black" cx="7267.59" cy="-18" rx="27" ry="18"/>
<text text-anchor="middle" x="7267.59" y="-14.3" font-family="Times New Roman,serif" font-size="14.00">x</text>
</g>
<!-- var_1 -->
<g id="node6" class="node">
<title>var_1</title>
<ellipse fill="none" stroke="black" cx="8809.59" cy="-18" rx="30.59" ry="18"/>
<text text-anchor="middle" x="8809.59" y="-14.3" font-family="Times New Roman,serif" font-size="14.00">var_1</text>
</g>
<!-- var_2 -->
<g id="node7" class="node">
<title>var_2</title>
<ellipse fill="none" stroke="black" cx="10345.59" cy="-18" rx="30.59" ry="18"/>
<text text-anchor="middle" x="10345.59" y="-14.3" font-family="Times New Roman,serif" font-size="14.00">var_2</text>
</g>
<!-- a73509c4710fa6dba6add447baac9b0e -->
<g id="node8" class="node">
<title>a73509c4710fa6dba6add447baac9b0e</title>
<ellipse fill="none" stroke="black" cx="145.59" cy="-90" rx="145.67" ry="18"/>
<text text-anchor="middle" x="145.59" y="-86.3" font-family="Times New Roman,serif" font-size="14.00">a73509c4710fa6dba6add447baac9b0e</text>
</g>
<!-- a73509c4710fa6dba6add447baac9b0e&#45;&gt;var_0 -->
<g id="edge1" class="edge">
<title>a73509c4710fa6dba6add447baac9b0e&#45;&gt;var_0</title>
<path fill="none" stroke="black" d="M246.14,-76.91C263.93,-75.05 282.29,-73.32 299.59,-72 776.26,-35.67 1356.81,-22.7 1513.82,-19.72"/>
<polygon fill="black" stroke="black" points="1514.03,-23.21 1523.96,-19.53 1513.9,-16.22 1514.03,-23.21"/>
</g>
<!-- c7b49216a240e9cbbd283b59d72ed992 -->
<g id="node9" class="node">
<title>c7b49216a240e9cbbd283b59d72ed992</title>
<ellipse fill="none" stroke="black" cx="457.59" cy="-90" rx="148.67" ry="18"/>
<text text-anchor="middle" x="457.59" y="-86.3" font-family="Times New Roman,serif" font-size="14.00">c7b49216a240e9cbbd283b59d72ed992</text>
</g>
<!-- c7b49216a240e9cbbd283b59d72ed992&#45;&gt;var_0 -->
<g id="edge2" class="edge">
<title>c7b49216a240e9cbbd283b59d72ed992&#45;&gt;var_0</title>
<path fill="none" stroke="black" d="M561.63,-77.05C579.61,-75.2 598.13,-73.43 615.59,-72 962.63,-43.55 1383.08,-25.72 1513.82,-20.56"/>
<polygon fill="black" stroke="black" points="1514.29,-24.04 1524.15,-20.16 1514.02,-17.05 1514.29,-24.04"/>
</g>
<!-- d4327e27c539a482b33108b935c4713a -->
<g id="node10" class="node">
<title>d4327e27c539a482b33108b935c4713a</title>
<ellipse fill="none" stroke="black" cx="773.59" cy="-90" rx="148.67" ry="18"/>
<text text-anchor="middle" x="773.59" y="-86.3" font-family="Times New Roman,serif" font-size="14.00">d4327e27c539a482b33108b935c4713a</text>
</g>
<!-- d4327e27c539a482b33108b935c4713a&#45;&gt;var_0 -->
<g id="edge3" class="edge">
<title>d4327e27c539a482b33108b935c4713a&#45;&gt;var_0</title>
<path fill="none" stroke="black" d="M879.12,-77.23C896.31,-75.41 913.94,-73.61 930.59,-72 1150.64,-50.74 1414.81,-29.82 1514.17,-22.11"/>
<polygon fill="black" stroke="black" points="1514.67,-25.58 1524.37,-21.32 1514.13,-18.6 1514.67,-25.58"/>
</g>
<!-- c45dbf7ea673605f7dd5dd4db3320aeb -->
<g id="node11" class="node">
<title>c45dbf7ea673605f7dd5dd4db3320aeb</title>
<ellipse fill="none" stroke="black" cx="1085.59" cy="-90" rx="145.67" ry="18"/>
<text text-anchor="middle" x="1085.59" y="-86.3" font-family="Times New Roman,serif" font-size="14.00">c45dbf7ea673605f7dd5dd4db3320aeb</text>
</g>
<!-- c45dbf7ea673605f7dd5dd4db3320aeb&#45;&gt;var_0 -->
<g id="edge4" class="edge">
<title>c45dbf7ea673605f7dd5dd4db3320aeb&#45;&gt;var_0</title>
<path fill="none" stroke="black" d="M1174.63,-75.71C1277.14,-60.41 1440.93,-35.96 1515.43,-24.85"/>
<polygon fill="black" stroke="black" points="1515.95,-28.3 1525.33,-23.37 1514.92,-21.38 1515.95,-28.3"/>
</g>
<!-- 510c1d210d1b8d789db1769df534d610 -->
<g id="node12" class="node">
<title>510c1d210d1b8d789db1769df534d610</title>
<ellipse fill="none" stroke="black" cx="1398.59" cy="-90" rx="149.47" ry="18"/>
<text text-anchor="middle" x="1398.59" y="-86.3" font-family="Times New Roman,serif" font-size="14.00">510c1d210d1b8d789db1769df534d610</text>
</g>
<!-- 510c1d210d1b8d789db1769df534d610&#45;&gt;var_0 -->
<g id="edge5" class="edge">
<title>510c1d210d1b8d789db1769df534d610&#45;&gt;var_0</title>
<path fill="none" stroke="black" d="M1435.56,-72.41C1461.76,-60.65 1496.6,-45.02 1521.82,-33.71"/>
<polygon fill="black" stroke="black" points="1523.28,-36.89 1530.97,-29.6 1520.41,-30.5 1523.28,-36.89"/>
</g>
<!-- f7faa569c94fb25e0b6b1a6dd4998d1e -->
<g id="node13" class="node">
<title>f7faa569c94fb25e0b6b1a6dd4998d1e</title>
<ellipse fill="none" stroke="black" cx="1709.59" cy="-90" rx="143.77" ry="18"/>
<text text-anchor="middle" x="1709.59" y="-86.3" font-family="Times New Roman,serif" font-size="14.00">f7faa569c94fb25e0b6b1a6dd4998d1e</text>
</g>
<!-- f7faa569c94fb25e0b6b1a6dd4998d1e&#45;&gt;var_0 -->
<g id="edge6" class="edge">
<title>f7faa569c94fb25e0b6b1a6dd4998d1e&#45;&gt;var_0</title>
<path fill="none" stroke="black" d="M1672.85,-72.41C1646.93,-60.7 1612.5,-45.16 1587.48,-33.85"/>
<polygon fill="black" stroke="black" points="1588.61,-30.52 1578.05,-29.6 1585.73,-36.9 1588.61,-30.52"/>
</g>
<!-- 398e291ad23a02205b42fe85793b1f7c -->
<g id="node14" class="node">
<title>398e291ad23a02205b42fe85793b1f7c</title>
<ellipse fill="none" stroke="black" cx="2016.59" cy="-90" rx="145.67" ry="18"/>
<text text-anchor="middle" x="2016.59" y="-86.3" font-family="Times New Roman,serif" font-size="14.00">398e291ad23a02205b42fe85793b1f7c</text>
</g>
<!-- 398e291ad23a02205b42fe85793b1f7c&#45;&gt;var_0 -->
<g id="edge7" class="edge">
<title>398e291ad23a02205b42fe85793b1f7c&#45;&gt;var_0</title>
<path fill="none" stroke="black" d="M1928.33,-75.63C1827.73,-60.38 1667.72,-36.14 1594.06,-24.98"/>
<polygon fill="black" stroke="black" points="1594.25,-21.47 1583.84,-23.43 1593.2,-28.39 1594.25,-21.47"/>
</g>
<!-- 6e6143873d431d65a273f7a10102a786 -->
<g id="node15" class="node">
<title>6e6143873d431d65a273f7a10102a786</title>
<ellipse fill="none" stroke="black" cx="2327.59" cy="-90" rx="147.57" ry="18"/>
<text text-anchor="middle" x="2327.59" y="-86.3" font-family="Times New Roman,serif" font-size="14.00">6e6143873d431d65a273f7a10102a786</text>
</g>
<!-- 6e6143873d431d65a273f7a10102a786&#45;&gt;var_0 -->
<g id="edge8" class="edge">
<title>6e6143873d431d65a273f7a10102a786&#45;&gt;var_0</title>
<path fill="none" stroke="black" d="M2223.15,-77.29C2205.93,-75.45 2188.26,-73.62 2171.59,-72 1954.26,-50.83 1693.42,-29.89 1594.9,-22.14"/>
<polygon fill="black" stroke="black" points="1595.03,-18.64 1584.78,-21.35 1594.48,-25.62 1595.03,-18.64"/>
</g>
<!-- 0aecb037338e94490f44f06479e81e22 -->
<g id="node16" class="node">
<title>0aecb037338e94490f44f06479e81e22</title>
<ellipse fill="none" stroke="black" cx="2638.59" cy="-90" rx="145.67" ry="18"/>
<text text-anchor="middle" x="2638.59" y="-86.3" font-family="Times New Roman,serif" font-size="14.00">0aecb037338e94490f44f06479e81e22</text>
</g>
<!-- 0aecb037338e94490f44f06479e81e22&#45;&gt;var_0 -->
<g id="edge9" class="edge">
<title>0aecb037338e94490f44f06479e81e22&#45;&gt;var_0</title>
<path fill="none" stroke="black" d="M2537.19,-77.03C2519.66,-75.19 2501.61,-73.42 2484.59,-72 2141.3,-43.29 1725.41,-25.66 1595.41,-20.55"/>
<polygon fill="black" stroke="black" points="1595.26,-17.04 1585.13,-20.15 1594.99,-24.04 1595.26,-17.04"/>
</g>
<!-- 3175c7627e6d2801021927b579c932ee -->
<g id="node17" class="node">
<title>3175c7627e6d2801021927b579c932ee</title>
<ellipse fill="none" stroke="black" cx="2950.59" cy="-90" rx="148.67" ry="18"/>
<text text-anchor="middle" x="2950.59" y="-86.3" font-family="Times New Roman,serif" font-size="14.00">3175c7627e6d2801021927b579c932ee</text>
</g>
<!-- 3175c7627e6d2801021927b579c932ee&#45;&gt;var_0 -->
<g id="edge10" class="edge">
<title>3175c7627e6d2801021927b579c932ee&#45;&gt;var_0</title>
<path fill="none" stroke="black" d="M2848.07,-76.93C2829.93,-75.07 2811.22,-73.33 2793.59,-72 2323.48,-36.53 1751.11,-22.96 1595.35,-19.78"/>
<polygon fill="black" stroke="black" points="1595.35,-16.28 1585.28,-19.58 1595.21,-23.28 1595.35,-16.28"/>
</g>
<!-- cd50da4cc6a056bc3bdced3a4d839f76 -->
<g id="node18" class="node">
<title>cd50da4cc6a056bc3bdced3a4d839f76</title>
<ellipse fill="none" stroke="black" cx="3262.59" cy="-90" rx="145.67" ry="18"/>
<text text-anchor="middle" x="3262.59" y="-86.3" font-family="Times New Roman,serif" font-size="14.00">cd50da4cc6a056bc3bdced3a4d839f76</text>
</g>
<!-- cd50da4cc6a056bc3bdced3a4d839f76&#45;&gt;w -->
<g id="edge11" class="edge">
<title>cd50da4cc6a056bc3bdced3a4d839f76&#45;&gt;w</title>
<path fill="none" stroke="black" d="M3365.37,-77.24C3504.55,-61.32 3746.12,-33.69 3837.84,-23.2"/>
<polygon fill="black" stroke="black" points="3838.47,-26.65 3848.01,-22.04 3837.68,-19.7 3838.47,-26.65"/>
</g>
<!-- 47926357ff9e4d72df249d7e9d8ae4b9 -->
<g id="node19" class="node">
<title>47926357ff9e4d72df249d7e9d8ae4b9</title>
<ellipse fill="none" stroke="black" cx="3571.59" cy="-90" rx="144.87" ry="18"/>
<text text-anchor="middle" x="3571.59" y="-86.3" font-family="Times New Roman,serif" font-size="14.00">47926357ff9e4d72df249d7e9d8ae4b9</text>
</g>
<!-- 47926357ff9e4d72df249d7e9d8ae4b9&#45;&gt;w -->
<g id="edge12" class="edge">
<title>47926357ff9e4d72df249d7e9d8ae4b9&#45;&gt;w</title>
<path fill="none" stroke="black" d="M3636.96,-73.9C3699,-59.56 3789.91,-38.56 3839.36,-27.14"/>
<polygon fill="black" stroke="black" points="3840.31,-30.51 3849.26,-24.85 3838.73,-23.69 3840.31,-30.51"/>
</g>
<!-- e0fd48798a804ff05fefc11adf112003 -->
<g id="node20" class="node">
<title>e0fd48798a804ff05fefc11adf112003</title>
<ellipse fill="none" stroke="black" cx="3874.59" cy="-90" rx="139.98" ry="18"/>
<text text-anchor="middle" x="3874.59" y="-86.3" font-family="Times New Roman,serif" font-size="14.00">e0fd48798a804ff05fefc11adf112003</text>
</g>
<!-- e0fd48798a804ff05fefc11adf112003&#45;&gt;w -->
<g id="edge13" class="edge">
<title>e0fd48798a804ff05fefc11adf112003&#45;&gt;w</title>
<path fill="none" stroke="black" d="M3874.59,-71.7C3874.59,-63.98 3874.59,-54.71 3874.59,-46.11"/>
<polygon fill="black" stroke="black" points="3878.09,-46.1 3874.59,-36.1 3871.09,-46.1 3878.09,-46.1"/>
</g>
<!-- c371b3b63e9119a684eb1734dbe8368f -->
<g id="node21" class="node">
<title>c371b3b63e9119a684eb1734dbe8368f</title>
<ellipse fill="none" stroke="black" cx="4179.59" cy="-90" rx="147.57" ry="18"/>
<text text-anchor="middle" x="4179.59" y="-86.3" font-family="Times New Roman,serif" font-size="14.00">c371b3b63e9119a684eb1734dbe8368f</text>
</g>
<!-- c371b3b63e9119a684eb1734dbe8368f&#45;&gt;w -->
<g id="edge14" class="edge">
<title>c371b3b63e9119a684eb1734dbe8368f&#45;&gt;w</title>
<path fill="none" stroke="black" d="M4113.41,-73.81C4050.76,-59.43 3959.14,-38.4 3909.56,-27.03"/>
<polygon fill="black" stroke="black" points="3910.18,-23.58 3899.65,-24.75 3908.61,-30.4 3910.18,-23.58"/>
</g>
<!-- c6a4d693b90e8422fbb0c5820f3c54c1 -->
<g id="node22" class="node">
<title>c6a4d693b90e8422fbb0c5820f3c54c1</title>
<ellipse fill="none" stroke="black" cx="4490.59" cy="-90" rx="145.67" ry="18"/>
<text text-anchor="middle" x="4490.59" y="-86.3" font-family="Times New Roman,serif" font-size="14.00">c6a4d693b90e8422fbb0c5820f3c54c1</text>
</g>
<!-- c6a4d693b90e8422fbb0c5820f3c54c1&#45;&gt;w -->
<g id="edge15" class="edge">
<title>c6a4d693b90e8422fbb0c5820f3c54c1&#45;&gt;w</title>
<path fill="none" stroke="black" d="M4387.48,-77.28C4247.16,-61.34 4002.98,-33.59 3911.02,-23.14"/>
<polygon fill="black" stroke="black" points="3911.41,-19.66 3901.08,-22.01 3910.62,-26.62 3911.41,-19.66"/>
</g>
<!-- 1b2d55237a39deec54c098f9dbc7d242 -->
<g id="node23" class="node">
<title>1b2d55237a39deec54c098f9dbc7d242</title>
<ellipse fill="none" stroke="black" cx="4800.59" cy="-90" rx="146.77" ry="18"/>
<text text-anchor="middle" x="4800.59" y="-86.3" font-family="Times New Roman,serif" font-size="14.00">1b2d55237a39deec54c098f9dbc7d242</text>
</g>
<!-- 1b2d55237a39deec54c098f9dbc7d242&#45;&gt;z -->
<g id="edge16" class="edge">
<title>1b2d55237a39deec54c098f9dbc7d242&#45;&gt;z</title>
<path fill="none" stroke="black" d="M4800.59,-71.7C4800.59,-63.98 4800.59,-54.71 4800.59,-46.11"/>
<polygon fill="black" stroke="black" points="4804.09,-46.1 4800.59,-36.1 4797.09,-46.1 4804.09,-46.1"/>
</g>
<!-- b4a3b7aec138ca2e436758da9b5ef1a5 -->
<g id="node24" class="node">
<title>b4a3b7aec138ca2e436758da9b5ef1a5</title>
<ellipse fill="none" stroke="black" cx="5110.59" cy="-90" rx="144.87" ry="18"/>
<text text-anchor="middle" x="5110.59" y="-86.3" font-family="Times New Roman,serif" font-size="14.00">b4a3b7aec138ca2e436758da9b5ef1a5</text>
</g>
<!-- b4a3b7aec138ca2e436758da9b5ef1a5&#45;&gt;y -->
<g id="edge17" class="edge">
<title>b4a3b7aec138ca2e436758da9b5ef1a5&#45;&gt;y</title>
<path fill="none" stroke="black" d="M5213.36,-77.28C5353.09,-61.35 5596.11,-33.65 5687.99,-23.17"/>
<polygon fill="black" stroke="black" points="5688.64,-26.62 5698.18,-22.01 5687.85,-19.67 5688.64,-26.62"/>
</g>
<!-- 4d8cce4bf3ef488c0274be625f3885bd -->
<g id="node25" class="node">
<title>4d8cce4bf3ef488c0274be625f3885bd</title>
<ellipse fill="none" stroke="black" cx="5417.59" cy="-90" rx="143.77" ry="18"/>
<text text-anchor="middle" x="5417.59" y="-86.3" font-family="Times New Roman,serif" font-size="14.00">4d8cce4bf3ef488c0274be625f3885bd</text>
</g>
<!-- 4d8cce4bf3ef488c0274be625f3885bd&#45;&gt;y -->
<g id="edge18" class="edge">
<title>4d8cce4bf3ef488c0274be625f3885bd&#45;&gt;y</title>
<path fill="none" stroke="black" d="M5483.45,-73.98C5546.44,-59.62 5639.06,-38.5 5689.2,-27.07"/>
<polygon fill="black" stroke="black" points="5690.26,-30.42 5699.23,-24.78 5688.7,-23.59 5690.26,-30.42"/>
</g>
<!-- fd1c8c3c71e88ddedbd7651c7333081f -->
<g id="node26" class="node">
<title>fd1c8c3c71e88ddedbd7651c7333081f</title>
<ellipse fill="none" stroke="black" cx="5724.59" cy="-90" rx="145.67" ry="18"/>
<text text-anchor="middle" x="5724.59" y="-86.3" font-family="Times New Roman,serif" font-size="14.00">fd1c8c3c71e88ddedbd7651c7333081f</text>
</g>
<!-- fd1c8c3c71e88ddedbd7651c7333081f&#45;&gt;y -->
<g id="edge19" class="edge">
<title>fd1c8c3c71e88ddedbd7651c7333081f&#45;&gt;y</title>
<path fill="none" stroke="black" d="M5724.59,-71.7C5724.59,-63.98 5724.59,-54.71 5724.59,-46.11"/>
<polygon fill="black" stroke="black" points="5728.09,-46.1 5724.59,-36.1 5721.09,-46.1 5728.09,-46.1"/>
</g>
<!-- b1434de7ef53ff68a84dab7dc5927e21 -->
<g id="node27" class="node">
<title>b1434de7ef53ff68a84dab7dc5927e21</title>
<ellipse fill="none" stroke="black" cx="6031.59" cy="-90" rx="143.77" ry="18"/>
<text text-anchor="middle" x="6031.59" y="-86.3" font-family="Times New Roman,serif" font-size="14.00">b1434de7ef53ff68a84dab7dc5927e21</text>
</g>
<!-- b1434de7ef53ff68a84dab7dc5927e21&#45;&gt;y -->
<g id="edge20" class="edge">
<title>b1434de7ef53ff68a84dab7dc5927e21&#45;&gt;y</title>
<path fill="none" stroke="black" d="M5965.73,-73.98C5902.73,-59.62 5810.11,-38.5 5759.97,-27.07"/>
<polygon fill="black" stroke="black" points="5760.47,-23.59 5749.95,-24.78 5758.92,-30.42 5760.47,-23.59"/>
</g>
<!-- 3420a767bb63899da05e418c782aea10 -->
<g id="node28" class="node">
<title>3420a767bb63899da05e418c782aea10</title>
<ellipse fill="none" stroke="black" cx="6340.59" cy="-90" rx="147.57" ry="18"/>
<text text-anchor="middle" x="6340.59" y="-86.3" font-family="Times New Roman,serif" font-size="14.00">3420a767bb63899da05e418c782aea10</text>
</g>
<!-- 3420a767bb63899da05e418c782aea10&#45;&gt;y -->
<g id="edge21" class="edge">
<title>3420a767bb63899da05e418c782aea10&#45;&gt;y</title>
<path fill="none" stroke="black" d="M6236.79,-77.2C6096.45,-61.26 5853.16,-33.61 5761.21,-23.16"/>
<polygon fill="black" stroke="black" points="5761.34,-19.65 5751.01,-22 5760.55,-26.61 5761.34,-19.65"/>
</g>
<!-- 878064f3b8b5e60587acb894a2123286 -->
<g id="node29" class="node">
<title>878064f3b8b5e60587acb894a2123286</title>
<ellipse fill="none" stroke="black" cx="6653.59" cy="-90" rx="147.57" ry="18"/>
<text text-anchor="middle" x="6653.59" y="-86.3" font-family="Times New Roman,serif" font-size="14.00">878064f3b8b5e60587acb894a2123286</text>
</g>
<!-- 878064f3b8b5e60587acb894a2123286&#45;&gt;x -->
<g id="edge22" class="edge">
<title>878064f3b8b5e60587acb894a2123286&#45;&gt;x</title>
<path fill="none" stroke="black" d="M6757.4,-77.17C6897.19,-61.23 7139.01,-33.66 7230.81,-23.19"/>
<polygon fill="black" stroke="black" points="7231.45,-26.64 7240.99,-22.03 7230.66,-19.69 7231.45,-26.64"/>
</g>
<!-- ae947f4ea2d56175533034ba994cea3b -->
<g id="node30" class="node">
<title>ae947f4ea2d56175533034ba994cea3b</title>
<ellipse fill="none" stroke="black" cx="6964.59" cy="-90" rx="145.67" ry="18"/>
<text text-anchor="middle" x="6964.59" y="-86.3" font-family="Times New Roman,serif" font-size="14.00">ae947f4ea2d56175533034ba994cea3b</text>
</g>
<!-- ae947f4ea2d56175533034ba994cea3b&#45;&gt;x -->
<g id="edge23" class="edge">
<title>ae947f4ea2d56175533034ba994cea3b&#45;&gt;x</title>
<path fill="none" stroke="black" d="M7029.96,-73.9C7092,-59.56 7182.91,-38.56 7232.36,-27.14"/>
<polygon fill="black" stroke="black" points="7233.31,-30.51 7242.26,-24.85 7231.73,-23.69 7233.31,-30.51"/>
</g>
<!-- 309cf7fccb270e09d1afcafd04c5cf0e -->
<g id="node31" class="node">
<title>309cf7fccb270e09d1afcafd04c5cf0e</title>
<ellipse fill="none" stroke="black" cx="7267.59" cy="-90" rx="139.18" ry="18"/>
<text text-anchor="middle" x="7267.59" y="-86.3" font-family="Times New Roman,serif" font-size="14.00">309cf7fccb270e09d1afcafd04c5cf0e</text>
</g>
<!-- 309cf7fccb270e09d1afcafd04c5cf0e&#45;&gt;x -->
<g id="edge24" class="edge">
<title>309cf7fccb270e09d1afcafd04c5cf0e&#45;&gt;x</title>
<path fill="none" stroke="black" d="M7267.59,-71.7C7267.59,-63.98 7267.59,-54.71 7267.59,-46.11"/>
<polygon fill="black" stroke="black" points="7271.09,-46.1 7267.59,-36.1 7264.09,-46.1 7271.09,-46.1"/>
</g>
<!-- 24540c335aba80547669d153421f2a85 -->
<g id="node32" class="node">
<title>24540c335aba80547669d153421f2a85</title>
<ellipse fill="none" stroke="black" cx="7572.59" cy="-90" rx="147.57" ry="18"/>
<text text-anchor="middle" x="7572.59" y="-86.3" font-family="Times New Roman,serif" font-size="14.00">24540c335aba80547669d153421f2a85</text>
</g>
<!-- 24540c335aba80547669d153421f2a85&#45;&gt;x -->
<g id="edge25" class="edge">
<title>24540c335aba80547669d153421f2a85&#45;&gt;x</title>
<path fill="none" stroke="black" d="M7506.41,-73.81C7443.76,-59.43 7352.14,-38.4 7302.56,-27.03"/>
<polygon fill="black" stroke="black" points="7303.18,-23.58 7292.65,-24.75 7301.61,-30.4 7303.18,-23.58"/>
</g>
<!-- 6104ef874890b835ade50312e877bb39 -->
<g id="node33" class="node">
<title>6104ef874890b835ade50312e877bb39</title>
<ellipse fill="none" stroke="black" cx="7885.59" cy="-90" rx="147.57" ry="18"/>
<text text-anchor="middle" x="7885.59" y="-86.3" font-family="Times New Roman,serif" font-size="14.00">6104ef874890b835ade50312e877bb39</text>
</g>
<!-- 6104ef874890b835ade50312e877bb39&#45;&gt;x -->
<g id="edge26" class="edge">
<title>6104ef874890b835ade50312e877bb39&#45;&gt;x</title>
<path fill="none" stroke="black" d="M7781.45,-77.2C7640.51,-61.24 7396.09,-33.55 7304.05,-23.13"/>
<polygon fill="black" stroke="black" points="7304.43,-19.65 7294.1,-22 7303.64,-26.61 7304.43,-19.65"/>
</g>
<!-- b0c0b34ff54fa0fd7acb98e911bbb9e5 -->
<g id="node34" class="node">
<title>b0c0b34ff54fa0fd7acb98e911bbb9e5</title>
<ellipse fill="none" stroke="black" cx="8193.59" cy="-90" rx="142.17" ry="18"/>
<text text-anchor="middle" x="8193.59" y="-86.3" font-family="Times New Roman,serif" font-size="14.00">b0c0b34ff54fa0fd7acb98e911bbb9e5</text>
</g>
<!-- b0c0b34ff54fa0fd7acb98e911bbb9e5&#45;&gt;var_1 -->
<g id="edge27" class="edge">
<title>b0c0b34ff54fa0fd7acb98e911bbb9e5&#45;&gt;var_1</title>
<path fill="none" stroke="black" d="M8295.65,-77.4C8434.07,-61.67 8674.89,-34.31 8769.65,-23.54"/>
<polygon fill="black" stroke="black" points="8770.14,-27.01 8779.68,-22.4 8769.35,-20.05 8770.14,-27.01"/>
</g>
<!-- 0a3f3ca217465a98dc1b0348106e4499 -->
<g id="node35" class="node">
<title>0a3f3ca217465a98dc1b0348106e4499</title>
<ellipse fill="none" stroke="black" cx="8500.59" cy="-90" rx="146.77" ry="18"/>
<text text-anchor="middle" x="8500.59" y="-86.3" font-family="Times New Roman,serif" font-size="14.00">0a3f3ca217465a98dc1b0348106e4499</text>
</g>
<!-- 0a3f3ca217465a98dc1b0348106e4499&#45;&gt;var_1 -->
<g id="edge28" class="edge">
<title>0a3f3ca217465a98dc1b0348106e4499&#45;&gt;var_1</title>
<path fill="none" stroke="black" d="M8567.26,-73.9C8629.66,-59.76 8720.71,-39.14 8771.58,-27.61"/>
<polygon fill="black" stroke="black" points="8772.52,-30.99 8781.5,-25.36 8770.97,-24.16 8772.52,-30.99"/>
</g>
<!-- 05f4551bf027fe69b1a8cd0b5ee6729e -->
<g id="node36" class="node">
<title>05f4551bf027fe69b1a8cd0b5ee6729e</title>
<ellipse fill="none" stroke="black" cx="8809.59" cy="-90" rx="143.77" ry="18"/>
<text text-anchor="middle" x="8809.59" y="-86.3" font-family="Times New Roman,serif" font-size="14.00">05f4551bf027fe69b1a8cd0b5ee6729e</text>
</g>
<!-- 05f4551bf027fe69b1a8cd0b5ee6729e&#45;&gt;var_1 -->
<g id="edge29" class="edge">
<title>05f4551bf027fe69b1a8cd0b5ee6729e&#45;&gt;var_1</title>
<path fill="none" stroke="black" d="M8809.59,-71.7C8809.59,-63.98 8809.59,-54.71 8809.59,-46.11"/>
<polygon fill="black" stroke="black" points="8813.09,-46.1 8809.59,-36.1 8806.09,-46.1 8813.09,-46.1"/>
</g>
<!-- dd373c0f2a2a695509cd451ea7b1fa35 -->
<g id="node37" class="node">
<title>dd373c0f2a2a695509cd451ea7b1fa35</title>
<ellipse fill="none" stroke="black" cx="9116.59" cy="-90" rx="144.87" ry="18"/>
<text text-anchor="middle" x="9116.59" y="-86.3" font-family="Times New Roman,serif" font-size="14.00">dd373c0f2a2a695509cd451ea7b1fa35</text>
</g>
<!-- dd373c0f2a2a695509cd451ea7b1fa35&#45;&gt;var_1 -->
<g id="edge30" class="edge">
<title>dd373c0f2a2a695509cd451ea7b1fa35&#45;&gt;var_1</title>
<path fill="none" stroke="black" d="M9050.35,-73.9C8988.35,-59.76 8897.89,-39.14 8847.35,-27.61"/>
<polygon fill="black" stroke="black" points="8848.02,-24.17 8837.5,-25.36 8846.47,-31 8848.02,-24.17"/>
</g>
<!-- b6fc53a0f1e1cff38bf7d57d1b5fdbd4 -->
<g id="node38" class="node">
<title>b6fc53a0f1e1cff38bf7d57d1b5fdbd4</title>
<ellipse fill="none" stroke="black" cx="9419.59" cy="-90" rx="140.28" ry="18"/>
<text text-anchor="middle" x="9419.59" y="-86.3" font-family="Times New Roman,serif" font-size="14.00">b6fc53a0f1e1cff38bf7d57d1b5fdbd4</text>
</g>
<!-- b6fc53a0f1e1cff38bf7d57d1b5fdbd4&#45;&gt;var_1 -->
<g id="edge31" class="edge">
<title>b6fc53a0f1e1cff38bf7d57d1b5fdbd4&#45;&gt;var_1</title>
<path fill="none" stroke="black" d="M9318.86,-77.44C9181.87,-61.72 8943.13,-34.32 8849.18,-23.54"/>
<polygon fill="black" stroke="black" points="8849.57,-20.07 8839.24,-22.4 8848.78,-27.02 8849.57,-20.07"/>
</g>
<!-- b43c2d2c288f08dcb635a50405e0f13d -->
<g id="node39" class="node">
<title>b43c2d2c288f08dcb635a50405e0f13d</title>
<ellipse fill="none" stroke="black" cx="9723.59" cy="-90" rx="145.67" ry="18"/>
<text text-anchor="middle" x="9723.59" y="-86.3" font-family="Times New Roman,serif" font-size="14.00">b43c2d2c288f08dcb635a50405e0f13d</text>
</g>
<!-- b43c2d2c288f08dcb635a50405e0f13d&#45;&gt;var_2 -->
<g id="edge32" class="edge">
<title>b43c2d2c288f08dcb635a50405e0f13d&#45;&gt;var_2</title>
<path fill="none" stroke="black" d="M9827.35,-77.32C9967.44,-61.56 10210.49,-34.2 10305.7,-23.49"/>
<polygon fill="black" stroke="black" points="10306.23,-26.95 10315.77,-22.36 10305.45,-20 10306.23,-26.95"/>
</g>
<!-- 75623ee5e5b77116b7b76c3634cb0053 -->
<g id="node40" class="node">
<title>75623ee5e5b77116b7b76c3634cb0053</title>
<ellipse fill="none" stroke="black" cx="10035.59" cy="-90" rx="148.67" ry="18"/>
<text text-anchor="middle" x="10035.59" y="-86.3" font-family="Times New Roman,serif" font-size="14.00">75623ee5e5b77116b7b76c3634cb0053</text>
</g>
<!-- 75623ee5e5b77116b7b76c3634cb0053&#45;&gt;var_2 -->
<g id="edge33" class="edge">
<title>75623ee5e5b77116b7b76c3634cb0053&#45;&gt;var_2</title>
<path fill="none" stroke="black" d="M10102.47,-73.9C10165.08,-59.76 10256.42,-39.14 10307.45,-27.61"/>
<polygon fill="black" stroke="black" points="10308.42,-30.98 10317.41,-25.36 10306.88,-24.15 10308.42,-30.98"/>
</g>
<!-- a02b22a1ea1e12f12ef7a2b3bf43122b -->
<g id="node41" class="node">
<title>a02b22a1ea1e12f12ef7a2b3bf43122b</title>
<ellipse fill="none" stroke="black" cx="10345.59" cy="-90" rx="143.77" ry="18"/>
<text text-anchor="middle" x="10345.59" y="-86.3" font-family="Times New Roman,serif" font-size="14.00">a02b22a1ea1e12f12ef7a2b3bf43122b</text>
</g>
<!-- a02b22a1ea1e12f12ef7a2b3bf43122b&#45;&gt;var_2 -->
<g id="edge34" class="edge">
<title>a02b22a1ea1e12f12ef7a2b3bf43122b&#45;&gt;var_2</title>
<path fill="none" stroke="black" d="M10345.59,-71.7C10345.59,-63.98 10345.59,-54.71 10345.59,-46.11"/>
<polygon fill="black" stroke="black" points="10349.09,-46.1 10345.59,-36.1 10342.09,-46.1 10349.09,-46.1"/>
</g>
<!-- b70ba74b24dd49ad54892e6ee7ef56ae -->
<g id="node42" class="node">
<title>b70ba74b24dd49ad54892e6ee7ef56ae</title>
<ellipse fill="none" stroke="black" cx="10652.59" cy="-90" rx="145.67" ry="18"/>
<text text-anchor="middle" x="10652.59" y="-86.3" font-family="Times New Roman,serif" font-size="14.00">b70ba74b24dd49ad54892e6ee7ef56ae</text>
</g>
<!-- b70ba74b24dd49ad54892e6ee7ef56ae&#45;&gt;var_2 -->
<g id="edge35" class="edge">
<title>b70ba74b24dd49ad54892e6ee7ef56ae&#45;&gt;var_2</title>
<path fill="none" stroke="black" d="M10586.35,-73.9C10524.35,-59.76 10433.89,-39.14 10383.35,-27.61"/>
<polygon fill="black" stroke="black" points="10384.02,-24.17 10373.5,-25.36 10382.47,-31 10384.02,-24.17"/>
</g>
<!-- c5d98c177317ad8938abb578db626a7e -->
<g id="node43" class="node">
<title>c5d98c177317ad8938abb578db626a7e</title>
<ellipse fill="none" stroke="black" cx="10964.59" cy="-90" rx="148.37" ry="18"/>
<text text-anchor="middle" x="10964.59" y="-86.3" font-family="Times New Roman,serif" font-size="14.00">c5d98c177317ad8938abb578db626a7e</text>
</g>
<!-- c5d98c177317ad8938abb578db626a7e&#45;&gt;var_2 -->
<g id="edge36" class="edge">
<title>c5d98c177317ad8938abb578db626a7e&#45;&gt;var_2</title>
<path fill="none" stroke="black" d="M10860.28,-77.2C10720.8,-61.43 10480.12,-34.21 10385.47,-23.51"/>
<polygon fill="black" stroke="black" points="10385.78,-20.02 10375.45,-22.38 10385,-26.98 10385.78,-20.02"/>
</g>
</g>
</svg>
